# MagicaVoxel @ Ephtracy

# material
mtllib Ataque_Up.mtl
usemtl palette

# normals
vn -1 0 0
vn 1 0 0
vn 0 0 1
vn 0 0 -1
vn 0 -1 0
vn 0 1 0

# texcoords
vt 0.0332031 0.5
vt 0.0449219 0.5
vt 0.0488281 0.5
vt 0.0527344 0.5
vt 0.0605469 0.5
vt 0.408203 0.5
vt 0.533203 0.5
vt 0.720703 0.5

# verts
v -6 7 1
v -6 7 -2
v -6 17 1
v -6 17 -2
v -5 6 1
v -5 6 -2
v -5 7 1
v -5 7 -2
v -5 17 1
v -5 17 -2
v -5 18 1
v -5 18 -2
v -4 9 1
v -4 9 -0
v -4 12 1
v -4 12 -0
v -4 13 -1
v -4 13 -2
v -4 14 1
v -4 14 -0
v -4 14 -1
v -4 14 -2
v -4 15 1
v -4 15 -0
v -2 12 -1
v -2 12 -2
v -2 15 -1
v -2 15 -2
v 1 11 -1
v 1 11 -2
v 1 12 -1
v 1 12 -2
v 2 9 -1
v 2 9 -2
v 2 11 -1
v 2 11 -2
v 3 13 1
v 3 13 -0
v 3 14 1
v 3 14 -0
v 4 7 1
v 4 7 -0
v 4 7 -1
v 4 7 -2
v 4 8 1
v 4 8 -0
v 4 8 -1
v 4 8 -2
v 4 16 1
v 4 16 -0
v 4 16 -1
v 4 16 -2
v 4 17 1
v 4 17 -0
v 4 17 -1
v 4 17 -2
v 5 8 1
v 5 8 -0
v 5 8 -1
v 5 8 -2
v 5 16 1
v 5 16 -0
v 5 16 -1
v 5 16 -2
v -5 8 1
v -5 8 -0
v -5 8 -1
v -5 8 -2
v -5 16 1
v -5 16 -0
v -5 16 -1
v -5 16 -2
v -4 7 1
v -4 7 -0
v -4 7 -1
v -4 7 -2
v -4 8 1
v -4 8 -0
v -4 8 -1
v -4 8 -2
v -4 16 1
v -4 16 -0
v -4 16 -1
v -4 16 -2
v -4 17 1
v -4 17 -0
v -4 17 -1
v -4 17 -2
v -3 13 -1
v -3 13 -2
v -3 14 -1
v -3 14 -2
v -2 9 1
v -2 9 -0
v -2 11 1
v -2 11 -0
v -1 11 1
v -1 11 -0
v -1 12 1
v -1 12 -0
v 2 12 1
v 2 12 -0
v 2 15 1
v 2 15 -0
v 4 9 -1
v 4 9 -2
v 4 12 -1
v 4 12 -2
v 4 13 1
v 4 13 -0
v 4 14 1
v 4 14 -0
v 4 14 -1
v 4 14 -2
v 4 15 -1
v 4 15 -2
v 5 6 1
v 5 6 -2
v 5 7 1
v 5 7 -2
v 5 17 1
v 5 17 -2
v 5 18 1
v 5 18 -2
v 6 7 1
v 6 7 -2
v 6 17 1
v 6 17 -2
v -6 7 1
v -6 17 1
v -5 6 1
v -5 7 1
v -5 8 1
v -5 16 1
v -5 17 1
v -5 18 1
v -4 7 1
v -4 8 1
v -4 9 1
v -4 12 1
v -4 14 1
v -4 15 1
v -4 16 1
v -4 17 1
v -2 9 1
v -2 11 1
v -2 12 1
v -1 11 1
v -1 12 1
v 1 14 1
v 1 15 1
v 2 12 1
v 2 15 1
v 3 13 1
v 3 14 1
v 4 7 1
v 4 8 1
v 4 13 1
v 4 14 1
v 4 16 1
v 4 17 1
v 5 6 1
v 5 7 1
v 5 8 1
v 5 16 1
v 5 17 1
v 5 18 1
v 6 7 1
v 6 17 1
v -5 8 -0
v -5 16 -0
v -4 7 -0
v -4 8 -0
v -4 9 -0
v -4 12 -0
v -4 14 -0
v -4 15 -0
v -4 16 -0
v -4 17 -0
v -2 9 -0
v -2 11 -0
v -1 11 -0
v -1 12 -0
v 1 15 -0
v 2 12 -0
v 2 15 -0
v 3 13 -0
v 3 14 -0
v 4 7 -0
v 4 8 -0
v 4 13 -0
v 4 14 -0
v 4 16 -0
v 4 17 -0
v 5 8 -0
v 5 16 -0
v -5 8 -1
v -5 16 -1
v -4 7 -1
v -4 8 -1
v -4 13 -1
v -4 14 -1
v -4 16 -1
v -4 17 -1
v -3 13 -1
v -3 14 -1
v -2 12 -1
v -2 15 -1
v -1 15 -1
v 1 11 -1
v 1 12 -1
v 2 9 -1
v 2 11 -1
v 4 7 -1
v 4 8 -1
v 4 9 -1
v 4 12 -1
v 4 14 -1
v 4 15 -1
v 4 16 -1
v 4 17 -1
v 5 8 -1
v 5 16 -1
v -6 7 -2
v -6 17 -2
v -5 6 -2
v -5 7 -2
v -5 8 -2
v -5 16 -2
v -5 17 -2
v -5 18 -2
v -4 7 -2
v -4 8 -2
v -4 13 -2
v -4 14 -2
v -4 16 -2
v -4 17 -2
v -3 13 -2
v -3 14 -2
v -2 12 -2
v -2 15 -2
v -1 14 -2
v -1 15 -2
v 1 11 -2
v 1 12 -2
v 2 9 -2
v 2 11 -2
v 2 12 -2
v 4 7 -2
v 4 8 -2
v 4 9 -2
v 4 12 -2
v 4 14 -2
v 4 15 -2
v 4 16 -2
v 4 17 -2
v 5 6 -2
v 5 7 -2
v 5 8 -2
v 5 16 -2
v 5 17 -2
v 5 18 -2
v 6 7 -2
v 6 17 -2
v -5 6 1
v 5 6 1
v -5 6 -2
v 5 6 -2
v -6 7 1
v -5 7 1
v 5 7 1
v 6 7 1
v -6 7 -2
v -5 7 -2
v 5 7 -2
v 6 7 -2
v -4 9 1
v -2 9 1
v -4 9 -0
v -2 9 -0
v 2 9 -1
v 4 9 -1
v 2 9 -2
v 4 9 -2
v -2 11 1
v -1 11 1
v -2 11 -0
v -1 11 -0
v 1 11 -1
v 2 11 -1
v 1 11 -2
v 2 11 -2
v -1 12 1
v 2 12 1
v -1 12 -0
v 2 12 -0
v -2 12 -1
v 1 12 -1
v -2 12 -2
v 1 12 -2
v 3 13 1
v 4 13 1
v 3 13 -0
v 4 13 -0
v -4 13 -1
v -3 13 -1
v -4 13 -2
v -3 13 -2
v -5 16 1
v -4 16 1
v 4 16 1
v 5 16 1
v -5 16 -0
v -4 16 -0
v 4 16 -0
v 5 16 -0
v -5 16 -1
v -4 16 -1
v 4 16 -1
v 5 16 -1
v -5 16 -2
v -4 16 -2
v 4 16 -2
v 5 16 -2
v -4 17 1
v 4 17 1
v -4 17 -0
v 4 17 -0
v -4 17 -1
v 4 17 -1
v -4 17 -2
v 4 17 -2
v -4 7 1
v 4 7 1
v -4 7 -0
v 4 7 -0
v -4 7 -1
v 4 7 -1
v -4 7 -2
v 4 7 -2
v -5 8 1
v -4 8 1
v 4 8 1
v 5 8 1
v -5 8 -0
v -4 8 -0
v 4 8 -0
v 5 8 -0
v -5 8 -1
v -4 8 -1
v 4 8 -1
v 5 8 -1
v -5 8 -2
v -4 8 -2
v 4 8 -2
v 5 8 -2
v 3 14 1
v 4 14 1
v 3 14 -0
v 4 14 -0
v -4 14 -1
v -3 14 -1
v -4 14 -2
v -3 14 -2
v -4 15 1
v 1 15 1
v 2 15 1
v -4 15 -0
v 1 15 -0
v 2 15 -0
v -2 15 -1
v -1 15 -1
v 4 15 -1
v -2 15 -2
v -1 15 -2
v 4 15 -2
v -6 17 1
v -5 17 1
v 5 17 1
v 6 17 1
v -6 17 -2
v -5 17 -2
v 5 17 -2
v 6 17 -2
v -5 18 1
v 5 18 1
v -5 18 -2
v 5 18 -2

# faces
f 3/8/1 2/8/1 1/8/1
f 4/8/1 2/8/1 3/8/1
f 7/8/1 6/8/1 5/8/1
f 8/8/1 6/8/1 7/8/1
f 11/8/1 10/8/1 9/8/1
f 12/8/1 10/8/1 11/8/1
f 15/4/1 14/4/1 13/4/1
f 16/4/1 14/4/1 15/4/1
f 19/2/1 16/2/1 15/2/1
f 20/2/1 16/2/1 19/2/1
f 21/6/1 18/6/1 17/6/1
f 22/6/1 18/6/1 21/6/1
f 23/1/1 20/1/1 19/1/1
f 24/1/1 20/1/1 23/1/1
f 27/2/1 26/2/1 25/2/1
f 28/2/1 26/2/1 27/2/1
f 31/3/1 30/3/1 29/3/1
f 32/3/1 30/3/1 31/3/1
f 35/4/1 34/4/1 33/4/1
f 36/4/1 34/4/1 35/4/1
f 39/6/1 38/6/1 37/6/1
f 40/6/1 38/6/1 39/6/1
f 45/8/1 42/8/1 41/8/1
f 46/8/1 42/8/1 45/8/1
f 47/8/1 44/8/1 43/8/1
f 48/8/1 44/8/1 47/8/1
f 53/8/1 50/8/1 49/8/1
f 54/8/1 50/8/1 53/8/1
f 55/8/1 52/8/1 51/8/1
f 56/8/1 52/8/1 55/8/1
f 61/8/1 58/8/1 57/8/1
f 62/8/1 58/8/1 61/8/1
f 63/8/1 60/8/1 59/8/1
f 64/8/1 60/8/1 63/8/1
f 65/8/2 66/8/2 69/8/2
f 69/8/2 66/8/2 70/8/2
f 67/8/2 68/8/2 71/8/2
f 71/8/2 68/8/2 72/8/2
f 73/8/2 74/8/2 77/8/2
f 77/8/2 74/8/2 78/8/2
f 75/8/2 76/8/2 79/8/2
f 79/8/2 76/8/2 80/8/2
f 81/8/2 82/8/2 85/8/2
f 85/8/2 82/8/2 86/8/2
f 83/8/2 84/8/2 87/8/2
f 87/8/2 84/8/2 88/8/2
f 89/6/2 90/6/2 91/6/2
f 91/6/2 90/6/2 92/6/2
f 93/4/2 94/4/2 95/4/2
f 95/4/2 94/4/2 96/4/2
f 97/3/2 98/3/2 99/3/2
f 99/3/2 98/3/2 100/3/2
f 101/2/2 102/2/2 103/2/2
f 103/2/2 102/2/2 104/2/2
f 105/4/2 106/4/2 107/4/2
f 107/4/2 106/4/2 108/4/2
f 109/6/2 110/6/2 111/6/2
f 111/6/2 110/6/2 112/6/2
f 107/2/2 108/2/2 113/2/2
f 113/2/2 108/2/2 114/2/2
f 113/1/2 114/1/2 115/1/2
f 115/1/2 114/1/2 116/1/2
f 117/8/2 118/8/2 119/8/2
f 119/8/2 118/8/2 120/8/2
f 121/8/2 122/8/2 123/8/2
f 123/8/2 122/8/2 124/8/2
f 125/8/2 126/8/2 127/8/2
f 127/8/2 126/8/2 128/8/2
f 132/8/3 130/8/3 129/8/3
f 133/8/3 130/8/3 132/8/3
f 134/8/3 130/8/3 133/8/3
f 135/8/3 130/8/3 134/8/3
f 137/8/3 132/8/3 131/8/3
f 137/8/3 133/8/3 132/8/3
f 138/8/3 133/8/3 137/8/3
f 143/8/3 136/8/3 135/8/3
f 143/8/3 135/8/3 134/8/3
f 144/8/3 136/8/3 143/8/3
f 145/4/3 140/4/3 139/4/3
f 146/4/3 140/4/3 145/4/3
f 147/2/3 141/2/3 140/2/3
f 147/4/3 140/4/3 146/4/3
f 148/3/3 147/3/3 146/3/3
f 149/2/3 141/2/3 147/2/3
f 149/3/3 147/3/3 148/3/3
f 150/1/3 142/1/3 141/1/3
f 150/2/3 141/2/3 149/2/3
f 151/1/3 142/1/3 150/1/3
f 152/2/3 150/2/3 149/2/3
f 152/2/3 151/2/3 150/2/3
f 153/2/3 151/2/3 152/2/3
f 156/8/3 137/8/3 131/8/3
f 158/6/3 155/6/3 154/6/3
f 159/6/3 155/6/3 158/6/3
f 161/8/3 136/8/3 144/8/3
f 162/8/3 157/8/3 156/8/3
f 162/8/3 156/8/3 131/8/3
f 163/8/3 157/8/3 162/8/3
f 164/8/3 157/8/3 163/8/3
f 165/8/3 161/8/3 160/8/3
f 166/8/3 136/8/3 161/8/3
f 166/8/3 161/8/3 165/8/3
f 167/8/3 136/8/3 166/8/3
f 168/8/3 164/8/3 163/8/3
f 168/8/3 165/8/3 164/8/3
f 168/8/3 166/8/3 165/8/3
f 169/8/3 166/8/3 168/8/3
f 173/5/3 171/5/3 170/5/3
f 174/5/3 171/5/3 173/5/3
f 175/5/3 171/5/3 174/5/3
f 176/5/3 171/5/3 175/5/3
f 177/5/3 171/5/3 176/5/3
f 178/5/3 171/5/3 177/5/3
f 180/5/3 173/5/3 172/5/3
f 180/5/3 174/5/3 173/5/3
f 182/5/3 181/5/3 180/5/3
f 184/5/3 179/5/3 178/5/3
f 184/5/3 178/5/3 177/5/3
f 185/5/3 183/5/3 182/5/3
f 186/5/3 179/5/3 184/5/3
f 187/5/3 186/5/3 185/5/3
f 188/5/3 186/5/3 187/5/3
f 189/5/3 185/5/3 182/5/3
f 189/5/3 182/5/3 180/5/3
f 189/5/3 187/5/3 185/5/3
f 189/5/3 180/5/3 172/5/3
f 190/5/3 187/5/3 189/5/3
f 191/5/3 187/5/3 190/5/3
f 192/5/3 186/5/3 188/5/3
f 193/5/3 179/5/3 186/5/3
f 193/5/3 186/5/3 192/5/3
f 194/5/3 179/5/3 193/5/3
f 195/5/3 191/5/3 190/5/3
f 195/5/3 192/5/3 191/5/3
f 195/5/3 193/5/3 192/5/3
f 196/5/3 193/5/3 195/5/3
f 197/5/4 198/5/4 200/5/4
f 200/5/4 198/5/4 201/5/4
f 201/5/4 198/5/4 202/5/4
f 202/5/4 198/5/4 203/5/4
f 199/5/4 200/5/4 205/5/4
f 200/5/4 201/5/4 205/5/4
f 203/5/4 204/5/4 206/5/4
f 202/5/4 203/5/4 206/5/4
f 199/5/4 205/5/4 207/5/4
f 205/5/4 206/5/4 207/5/4
f 206/5/4 204/5/4 208/5/4
f 207/5/4 206/5/4 208/5/4
f 208/5/4 204/5/4 209/5/4
f 199/5/4 207/5/4 210/5/4
f 210/5/4 207/5/4 211/5/4
f 199/5/4 210/5/4 212/5/4
f 212/5/4 210/5/4 213/5/4
f 199/5/4 212/5/4 214/5/4
f 214/5/4 212/5/4 215/5/4
f 215/5/4 212/5/4 216/5/4
f 209/5/4 204/5/4 219/5/4
f 219/5/4 204/5/4 220/5/4
f 220/5/4 204/5/4 221/5/4
f 217/5/4 218/5/4 222/5/4
f 216/5/4 217/5/4 222/5/4
f 219/5/4 220/5/4 222/5/4
f 218/5/4 219/5/4 222/5/4
f 215/5/4 216/5/4 222/5/4
f 222/5/4 220/5/4 223/5/4
f 224/8/4 225/8/4 227/8/4
f 227/8/4 225/8/4 228/8/4
f 228/8/4 225/8/4 229/8/4
f 229/8/4 225/8/4 230/8/4
f 226/8/4 227/8/4 232/8/4
f 227/8/4 228/8/4 232/8/4
f 232/8/4 228/8/4 233/8/4
f 230/8/4 231/8/4 236/8/4
f 229/8/4 230/8/4 236/8/4
f 236/8/4 231/8/4 237/8/4
f 234/6/4 235/6/4 238/6/4
f 238/6/4 235/6/4 239/6/4
f 240/2/4 241/2/4 242/2/4
f 242/2/4 241/2/4 243/2/4
f 240/2/4 242/2/4 245/2/4
f 244/3/4 245/3/4 247/3/4
f 245/2/4 242/2/4 248/2/4
f 247/3/4 245/3/4 248/3/4
f 226/8/4 232/8/4 249/8/4
f 246/4/4 247/4/4 251/4/4
f 247/4/4 248/4/4 251/4/4
f 248/2/4 242/2/4 252/2/4
f 251/4/4 248/4/4 252/4/4
f 242/1/4 243/1/4 253/1/4
f 252/2/4 242/2/4 253/2/4
f 253/1/4 243/1/4 254/1/4
f 237/8/4 231/8/4 256/8/4
f 249/8/4 250/8/4 257/8/4
f 226/8/4 249/8/4 257/8/4
f 257/8/4 250/8/4 258/8/4
f 258/8/4 250/8/4 259/8/4
f 255/8/4 256/8/4 260/8/4
f 256/8/4 231/8/4 261/8/4
f 260/8/4 256/8/4 261/8/4
f 261/8/4 231/8/4 262/8/4
f 258/8/4 259/8/4 263/8/4
f 259/8/4 260/8/4 263/8/4
f 260/8/4 261/8/4 263/8/4
f 263/8/4 261/8/4 264/8/4
f 267/8/5 266/8/5 265/8/5
f 268/8/5 266/8/5 267/8/5
f 273/8/5 270/8/5 269/8/5
f 274/8/5 270/8/5 273/8/5
f 275/8/5 272/8/5 271/8/5
f 276/8/5 272/8/5 275/8/5
f 279/4/5 278/4/5 277/4/5
f 280/4/5 278/4/5 279/4/5
f 283/4/5 282/4/5 281/4/5
f 284/4/5 282/4/5 283/4/5
f 287/3/5 286/3/5 285/3/5
f 288/3/5 286/3/5 287/3/5
f 291/3/5 290/3/5 289/3/5
f 292/3/5 290/3/5 291/3/5
f 295/2/5 294/2/5 293/2/5
f 296/2/5 294/2/5 295/2/5
f 299/2/5 298/2/5 297/2/5
f 300/2/5 298/2/5 299/2/5
f 303/6/5 302/6/5 301/6/5
f 304/6/5 302/6/5 303/6/5
f 307/6/5 306/6/5 305/6/5
f 308/6/5 306/6/5 307/6/5
f 313/8/5 310/8/5 309/8/5
f 314/8/5 310/8/5 313/8/5
f 315/8/5 312/8/5 311/8/5
f 316/8/5 312/8/5 315/8/5
f 321/8/5 318/8/5 317/8/5
f 322/8/5 318/8/5 321/8/5
f 323/8/5 320/8/5 319/8/5
f 324/8/5 320/8/5 323/8/5
f 327/8/5 326/8/5 325/8/5
f 328/8/5 326/8/5 327/8/5
f 331/8/5 330/8/5 329/8/5
f 332/8/5 330/8/5 331/8/5
f 333/8/6 334/8/6 335/8/6
f 335/8/6 334/8/6 336/8/6
f 337/8/6 338/8/6 339/8/6
f 339/8/6 338/8/6 340/8/6
f 341/8/6 342/8/6 345/8/6
f 345/8/6 342/8/6 346/8/6
f 343/8/6 344/8/6 347/8/6
f 347/8/6 344/8/6 348/8/6
f 349/8/6 350/8/6 353/8/6
f 353/8/6 350/8/6 354/8/6
f 351/8/6 352/8/6 355/8/6
f 355/8/6 352/8/6 356/8/6
f 357/6/6 358/6/6 359/6/6
f 359/6/6 358/6/6 360/6/6
f 361/6/6 362/6/6 363/6/6
f 363/6/6 362/6/6 364/6/6
f 365/1/6 366/1/6 368/1/6
f 366/2/6 367/2/6 369/2/6
f 368/1/6 366/1/6 369/1/6
f 369/2/6 367/2/6 370/2/6
f 371/2/6 372/2/6 374/2/6
f 372/1/6 373/1/6 375/1/6
f 374/2/6 372/2/6 375/2/6
f 375/1/6 373/1/6 376/1/6
f 377/8/6 378/8/6 381/8/6
f 381/8/6 378/8/6 382/8/6
f 379/8/6 380/8/6 383/8/6
f 383/8/6 380/8/6 384/8/6
f 385/8/6 386/8/6 387/8/6
f 387/8/6 386/8/6 388/8/6
