# MagicaVoxel @ Ephtracy

# material
mtllib Ataque_Down.mtl
usemtl palette

# normals
vn -1 0 0
vn 1 0 0
vn 0 0 1
vn 0 0 -1
vn 0 -1 0
vn 0 1 0

# texcoords
vt 0.0332031 0.5
vt 0.0449219 0.5
vt 0.0488281 0.5
vt 0.0527344 0.5
vt 0.0605469 0.5
vt 0.408203 0.5
vt 0.533203 0.5

# verts
v -6 7 1
v -6 7 -2
v -6 17 1
v -6 17 -2
v -5 6 1
v -5 6 -2
v -5 7 1
v -5 7 -2
v -5 17 1
v -5 17 -2
v -5 18 1
v -5 18 -2
v -4 9 1
v -4 9 -0
v -4 12 1
v -4 12 -0
v -4 13 -1
v -4 13 -2
v -4 14 1
v -4 14 -0
v -4 14 -1
v -4 14 -2
v -4 15 1
v -4 15 -0
v -2 12 -1
v -2 12 -2
v -2 15 -1
v -2 15 -2
v 1 11 -1
v 1 11 -2
v 1 12 -1
v 1 12 -2
v 2 9 -1
v 2 9 -2
v 2 11 -1
v 2 11 -2
v 3 13 1
v 3 13 -0
v 3 14 1
v 3 14 -0
v 4 7 1
v 4 7 -0
v 4 7 -1
v 4 7 -2
v 4 8 1
v 4 8 -0
v 4 8 -1
v 4 8 -2
v 4 16 1
v 4 16 -0
v 4 16 -1
v 4 16 -2
v 4 17 1
v 4 17 -0
v 4 17 -1
v 4 17 -2
v 5 8 1
v 5 8 -0
v 5 8 -1
v 5 8 -2
v 5 16 1
v 5 16 -0
v 5 16 -1
v 5 16 -2
v -5 8 1
v -5 8 -0
v -5 8 -1
v -5 8 -2
v -5 16 1
v -5 16 -0
v -5 16 -1
v -5 16 -2
v -4 7 1
v -4 7 -0
v -4 7 -1
v -4 7 -2
v -4 8 1
v -4 8 -0
v -4 8 -1
v -4 8 -2
v -4 16 1
v -4 16 -0
v -4 16 -1
v -4 16 -2
v -4 17 1
v -4 17 -0
v -4 17 -1
v -4 17 -2
v -3 13 -1
v -3 13 -2
v -3 14 -1
v -3 14 -2
v -2 9 1
v -2 9 -0
v -2 11 1
v -2 11 -0
v -1 11 1
v -1 11 -0
v -1 12 1
v -1 12 -0
v 2 12 1
v 2 12 -0
v 2 15 1
v 2 15 -0
v 4 9 -1
v 4 9 -2
v 4 12 -1
v 4 12 -2
v 4 13 1
v 4 13 -0
v 4 14 1
v 4 14 -0
v 4 14 -1
v 4 14 -2
v 4 15 -1
v 4 15 -2
v 5 6 1
v 5 6 -2
v 5 7 1
v 5 7 -2
v 5 17 1
v 5 17 -2
v 5 18 1
v 5 18 -2
v 6 7 1
v 6 7 -2
v 6 17 1
v 6 17 -2
v -6 7 1
v -6 17 1
v -5 6 1
v -5 7 1
v -5 8 1
v -5 16 1
v -5 17 1
v -5 18 1
v -4 7 1
v -4 8 1
v -4 9 1
v -4 12 1
v -4 14 1
v -4 15 1
v -4 16 1
v -4 17 1
v -2 9 1
v -2 11 1
v -2 12 1
v -1 11 1
v -1 12 1
v 1 14 1
v 1 15 1
v 2 12 1
v 2 15 1
v 3 13 1
v 3 14 1
v 4 7 1
v 4 8 1
v 4 13 1
v 4 14 1
v 4 16 1
v 4 17 1
v 5 6 1
v 5 7 1
v 5 8 1
v 5 16 1
v 5 17 1
v 5 18 1
v 6 7 1
v 6 17 1
v -5 8 -0
v -5 16 -0
v -4 7 -0
v -4 8 -0
v -4 9 -0
v -4 12 -0
v -4 14 -0
v -4 15 -0
v -4 16 -0
v -4 17 -0
v -2 9 -0
v -2 11 -0
v -1 11 -0
v -1 12 -0
v 1 15 -0
v 2 12 -0
v 2 15 -0
v 3 13 -0
v 3 14 -0
v 4 7 -0
v 4 8 -0
v 4 13 -0
v 4 14 -0
v 4 16 -0
v 4 17 -0
v 5 8 -0
v 5 16 -0
v -5 8 -1
v -5 16 -1
v -4 7 -1
v -4 8 -1
v -4 13 -1
v -4 14 -1
v -4 16 -1
v -4 17 -1
v -3 13 -1
v -3 14 -1
v -2 12 -1
v -2 15 -1
v -1 15 -1
v 1 11 -1
v 1 12 -1
v 2 9 -1
v 2 11 -1
v 4 7 -1
v 4 8 -1
v 4 9 -1
v 4 12 -1
v 4 14 -1
v 4 15 -1
v 4 16 -1
v 4 17 -1
v 5 8 -1
v 5 16 -1
v -6 7 -2
v -6 17 -2
v -5 6 -2
v -5 7 -2
v -5 8 -2
v -5 16 -2
v -5 17 -2
v -5 18 -2
v -4 7 -2
v -4 8 -2
v -4 13 -2
v -4 14 -2
v -4 16 -2
v -4 17 -2
v -3 13 -2
v -3 14 -2
v -2 12 -2
v -2 15 -2
v -1 14 -2
v -1 15 -2
v 1 11 -2
v 1 12 -2
v 2 9 -2
v 2 11 -2
v 2 12 -2
v 4 7 -2
v 4 8 -2
v 4 9 -2
v 4 12 -2
v 4 14 -2
v 4 15 -2
v 4 16 -2
v 4 17 -2
v 5 6 -2
v 5 7 -2
v 5 8 -2
v 5 16 -2
v 5 17 -2
v 5 18 -2
v 6 7 -2
v 6 17 -2
v -5 6 1
v 5 6 1
v -5 6 -2
v 5 6 -2
v -6 7 1
v -5 7 1
v 5 7 1
v 6 7 1
v -6 7 -2
v -5 7 -2
v 5 7 -2
v 6 7 -2
v -4 9 1
v -2 9 1
v -4 9 -0
v -2 9 -0
v 2 9 -1
v 4 9 -1
v 2 9 -2
v 4 9 -2
v -2 11 1
v -1 11 1
v -2 11 -0
v -1 11 -0
v 1 11 -1
v 2 11 -1
v 1 11 -2
v 2 11 -2
v -1 12 1
v 2 12 1
v -1 12 -0
v 2 12 -0
v -2 12 -1
v 1 12 -1
v -2 12 -2
v 1 12 -2
v 3 13 1
v 4 13 1
v 3 13 -0
v 4 13 -0
v -4 13 -1
v -3 13 -1
v -4 13 -2
v -3 13 -2
v -5 16 1
v -4 16 1
v 4 16 1
v 5 16 1
v -5 16 -0
v -4 16 -0
v 4 16 -0
v 5 16 -0
v -5 16 -1
v -4 16 -1
v 4 16 -1
v 5 16 -1
v -5 16 -2
v -4 16 -2
v 4 16 -2
v 5 16 -2
v -4 17 1
v 4 17 1
v -4 17 -0
v 4 17 -0
v -4 17 -1
v 4 17 -1
v -4 17 -2
v 4 17 -2
v -4 7 1
v 4 7 1
v -4 7 -0
v 4 7 -0
v -4 7 -1
v 4 7 -1
v -4 7 -2
v 4 7 -2
v -5 8 1
v -4 8 1
v 4 8 1
v 5 8 1
v -5 8 -0
v -4 8 -0
v 4 8 -0
v 5 8 -0
v -5 8 -1
v -4 8 -1
v 4 8 -1
v 5 8 -1
v -5 8 -2
v -4 8 -2
v 4 8 -2
v 5 8 -2
v 3 14 1
v 4 14 1
v 3 14 -0
v 4 14 -0
v -4 14 -1
v -3 14 -1
v -4 14 -2
v -3 14 -2
v -4 15 1
v 1 15 1
v 2 15 1
v -4 15 -0
v 1 15 -0
v 2 15 -0
v -2 15 -1
v -1 15 -1
v 4 15 -1
v -2 15 -2
v -1 15 -2
v 4 15 -2
v -6 17 1
v -5 17 1
v 5 17 1
v 6 17 1
v -6 17 -2
v -5 17 -2
v 5 17 -2
v 6 17 -2
v -5 18 1
v 5 18 1
v -5 18 -2
v 5 18 -2

# faces
f 3/7/1 2/7/1 1/7/1
f 4/7/1 2/7/1 3/7/1
f 7/7/1 6/7/1 5/7/1
f 8/7/1 6/7/1 7/7/1
f 11/7/1 10/7/1 9/7/1
f 12/7/1 10/7/1 11/7/1
f 15/4/1 14/4/1 13/4/1
f 16/4/1 14/4/1 15/4/1
f 19/2/1 16/2/1 15/2/1
f 20/2/1 16/2/1 19/2/1
f 21/6/1 18/6/1 17/6/1
f 22/6/1 18/6/1 21/6/1
f 23/1/1 20/1/1 19/1/1
f 24/1/1 20/1/1 23/1/1
f 27/2/1 26/2/1 25/2/1
f 28/2/1 26/2/1 27/2/1
f 31/3/1 30/3/1 29/3/1
f 32/3/1 30/3/1 31/3/1
f 35/4/1 34/4/1 33/4/1
f 36/4/1 34/4/1 35/4/1
f 39/6/1 38/6/1 37/6/1
f 40/6/1 38/6/1 39/6/1
f 45/7/1 42/7/1 41/7/1
f 46/7/1 42/7/1 45/7/1
f 47/7/1 44/7/1 43/7/1
f 48/7/1 44/7/1 47/7/1
f 53/7/1 50/7/1 49/7/1
f 54/7/1 50/7/1 53/7/1
f 55/7/1 52/7/1 51/7/1
f 56/7/1 52/7/1 55/7/1
f 61/7/1 58/7/1 57/7/1
f 62/7/1 58/7/1 61/7/1
f 63/7/1 60/7/1 59/7/1
f 64/7/1 60/7/1 63/7/1
f 65/7/2 66/7/2 69/7/2
f 69/7/2 66/7/2 70/7/2
f 67/7/2 68/7/2 71/7/2
f 71/7/2 68/7/2 72/7/2
f 73/7/2 74/7/2 77/7/2
f 77/7/2 74/7/2 78/7/2
f 75/7/2 76/7/2 79/7/2
f 79/7/2 76/7/2 80/7/2
f 81/7/2 82/7/2 85/7/2
f 85/7/2 82/7/2 86/7/2
f 83/7/2 84/7/2 87/7/2
f 87/7/2 84/7/2 88/7/2
f 89/6/2 90/6/2 91/6/2
f 91/6/2 90/6/2 92/6/2
f 93/4/2 94/4/2 95/4/2
f 95/4/2 94/4/2 96/4/2
f 97/3/2 98/3/2 99/3/2
f 99/3/2 98/3/2 100/3/2
f 101/2/2 102/2/2 103/2/2
f 103/2/2 102/2/2 104/2/2
f 105/4/2 106/4/2 107/4/2
f 107/4/2 106/4/2 108/4/2
f 109/6/2 110/6/2 111/6/2
f 111/6/2 110/6/2 112/6/2
f 107/2/2 108/2/2 113/2/2
f 113/2/2 108/2/2 114/2/2
f 113/1/2 114/1/2 115/1/2
f 115/1/2 114/1/2 116/1/2
f 117/7/2 118/7/2 119/7/2
f 119/7/2 118/7/2 120/7/2
f 121/7/2 122/7/2 123/7/2
f 123/7/2 122/7/2 124/7/2
f 125/7/2 126/7/2 127/7/2
f 127/7/2 126/7/2 128/7/2
f 132/7/3 130/7/3 129/7/3
f 133/7/3 130/7/3 132/7/3
f 134/7/3 130/7/3 133/7/3
f 135/7/3 130/7/3 134/7/3
f 137/7/3 132/7/3 131/7/3
f 137/7/3 133/7/3 132/7/3
f 138/7/3 133/7/3 137/7/3
f 143/7/3 136/7/3 135/7/3
f 143/7/3 135/7/3 134/7/3
f 144/7/3 136/7/3 143/7/3
f 145/4/3 140/4/3 139/4/3
f 146/4/3 140/4/3 145/4/3
f 147/2/3 141/2/3 140/2/3
f 147/4/3 140/4/3 146/4/3
f 148/3/3 147/3/3 146/3/3
f 149/2/3 141/2/3 147/2/3
f 149/3/3 147/3/3 148/3/3
f 150/1/3 142/1/3 141/1/3
f 150/2/3 141/2/3 149/2/3
f 151/1/3 142/1/3 150/1/3
f 152/2/3 150/2/3 149/2/3
f 152/2/3 151/2/3 150/2/3
f 153/2/3 151/2/3 152/2/3
f 156/7/3 137/7/3 131/7/3
f 158/6/3 155/6/3 154/6/3
f 159/6/3 155/6/3 158/6/3
f 161/7/3 136/7/3 144/7/3
f 162/7/3 157/7/3 156/7/3
f 162/7/3 156/7/3 131/7/3
f 163/7/3 157/7/3 162/7/3
f 164/7/3 157/7/3 163/7/3
f 165/7/3 161/7/3 160/7/3
f 166/7/3 136/7/3 161/7/3
f 166/7/3 161/7/3 165/7/3
f 167/7/3 136/7/3 166/7/3
f 168/7/3 164/7/3 163/7/3
f 168/7/3 165/7/3 164/7/3
f 168/7/3 166/7/3 165/7/3
f 169/7/3 166/7/3 168/7/3
f 173/5/3 171/5/3 170/5/3
f 174/5/3 171/5/3 173/5/3
f 175/5/3 171/5/3 174/5/3
f 176/5/3 171/5/3 175/5/3
f 177/5/3 171/5/3 176/5/3
f 178/5/3 171/5/3 177/5/3
f 180/5/3 173/5/3 172/5/3
f 180/5/3 174/5/3 173/5/3
f 182/5/3 181/5/3 180/5/3
f 184/5/3 179/5/3 178/5/3
f 184/5/3 178/5/3 177/5/3
f 185/5/3 183/5/3 182/5/3
f 186/5/3 179/5/3 184/5/3
f 187/5/3 186/5/3 185/5/3
f 188/5/3 186/5/3 187/5/3
f 189/5/3 185/5/3 182/5/3
f 189/5/3 182/5/3 180/5/3
f 189/5/3 187/5/3 185/5/3
f 189/5/3 180/5/3 172/5/3
f 190/5/3 187/5/3 189/5/3
f 191/5/3 187/5/3 190/5/3
f 192/5/3 186/5/3 188/5/3
f 193/5/3 179/5/3 186/5/3
f 193/5/3 186/5/3 192/5/3
f 194/5/3 179/5/3 193/5/3
f 195/5/3 191/5/3 190/5/3
f 195/5/3 192/5/3 191/5/3
f 195/5/3 193/5/3 192/5/3
f 196/5/3 193/5/3 195/5/3
f 197/5/4 198/5/4 200/5/4
f 200/5/4 198/5/4 201/5/4
f 201/5/4 198/5/4 202/5/4
f 202/5/4 198/5/4 203/5/4
f 199/5/4 200/5/4 205/5/4
f 200/5/4 201/5/4 205/5/4
f 203/5/4 204/5/4 206/5/4
f 202/5/4 203/5/4 206/5/4
f 199/5/4 205/5/4 207/5/4
f 205/5/4 206/5/4 207/5/4
f 206/5/4 204/5/4 208/5/4
f 207/5/4 206/5/4 208/5/4
f 208/5/4 204/5/4 209/5/4
f 199/5/4 207/5/4 210/5/4
f 210/5/4 207/5/4 211/5/4
f 199/5/4 210/5/4 212/5/4
f 212/5/4 210/5/4 213/5/4
f 199/5/4 212/5/4 214/5/4
f 214/5/4 212/5/4 215/5/4
f 215/5/4 212/5/4 216/5/4
f 209/5/4 204/5/4 219/5/4
f 219/5/4 204/5/4 220/5/4
f 220/5/4 204/5/4 221/5/4
f 217/5/4 218/5/4 222/5/4
f 216/5/4 217/5/4 222/5/4
f 219/5/4 220/5/4 222/5/4
f 218/5/4 219/5/4 222/5/4
f 215/5/4 216/5/4 222/5/4
f 222/5/4 220/5/4 223/5/4
f 224/7/4 225/7/4 227/7/4
f 227/7/4 225/7/4 228/7/4
f 228/7/4 225/7/4 229/7/4
f 229/7/4 225/7/4 230/7/4
f 226/7/4 227/7/4 232/7/4
f 227/7/4 228/7/4 232/7/4
f 232/7/4 228/7/4 233/7/4
f 230/7/4 231/7/4 236/7/4
f 229/7/4 230/7/4 236/7/4
f 236/7/4 231/7/4 237/7/4
f 234/6/4 235/6/4 238/6/4
f 238/6/4 235/6/4 239/6/4
f 240/2/4 241/2/4 242/2/4
f 242/2/4 241/2/4 243/2/4
f 240/2/4 242/2/4 245/2/4
f 244/3/4 245/3/4 247/3/4
f 245/2/4 242/2/4 248/2/4
f 247/3/4 245/3/4 248/3/4
f 226/7/4 232/7/4 249/7/4
f 246/4/4 247/4/4 251/4/4
f 247/4/4 248/4/4 251/4/4
f 248/2/4 242/2/4 252/2/4
f 251/4/4 248/4/4 252/4/4
f 242/1/4 243/1/4 253/1/4
f 252/2/4 242/2/4 253/2/4
f 253/1/4 243/1/4 254/1/4
f 237/7/4 231/7/4 256/7/4
f 249/7/4 250/7/4 257/7/4
f 226/7/4 249/7/4 257/7/4
f 257/7/4 250/7/4 258/7/4
f 258/7/4 250/7/4 259/7/4
f 255/7/4 256/7/4 260/7/4
f 256/7/4 231/7/4 261/7/4
f 260/7/4 256/7/4 261/7/4
f 261/7/4 231/7/4 262/7/4
f 258/7/4 259/7/4 263/7/4
f 259/7/4 260/7/4 263/7/4
f 260/7/4 261/7/4 263/7/4
f 263/7/4 261/7/4 264/7/4
f 267/7/5 266/7/5 265/7/5
f 268/7/5 266/7/5 267/7/5
f 273/7/5 270/7/5 269/7/5
f 274/7/5 270/7/5 273/7/5
f 275/7/5 272/7/5 271/7/5
f 276/7/5 272/7/5 275/7/5
f 279/4/5 278/4/5 277/4/5
f 280/4/5 278/4/5 279/4/5
f 283/4/5 282/4/5 281/4/5
f 284/4/5 282/4/5 283/4/5
f 287/3/5 286/3/5 285/3/5
f 288/3/5 286/3/5 287/3/5
f 291/3/5 290/3/5 289/3/5
f 292/3/5 290/3/5 291/3/5
f 295/2/5 294/2/5 293/2/5
f 296/2/5 294/2/5 295/2/5
f 299/2/5 298/2/5 297/2/5
f 300/2/5 298/2/5 299/2/5
f 303/6/5 302/6/5 301/6/5
f 304/6/5 302/6/5 303/6/5
f 307/6/5 306/6/5 305/6/5
f 308/6/5 306/6/5 307/6/5
f 313/7/5 310/7/5 309/7/5
f 314/7/5 310/7/5 313/7/5
f 315/7/5 312/7/5 311/7/5
f 316/7/5 312/7/5 315/7/5
f 321/7/5 318/7/5 317/7/5
f 322/7/5 318/7/5 321/7/5
f 323/7/5 320/7/5 319/7/5
f 324/7/5 320/7/5 323/7/5
f 327/7/5 326/7/5 325/7/5
f 328/7/5 326/7/5 327/7/5
f 331/7/5 330/7/5 329/7/5
f 332/7/5 330/7/5 331/7/5
f 333/7/6 334/7/6 335/7/6
f 335/7/6 334/7/6 336/7/6
f 337/7/6 338/7/6 339/7/6
f 339/7/6 338/7/6 340/7/6
f 341/7/6 342/7/6 345/7/6
f 345/7/6 342/7/6 346/7/6
f 343/7/6 344/7/6 347/7/6
f 347/7/6 344/7/6 348/7/6
f 349/7/6 350/7/6 353/7/6
f 353/7/6 350/7/6 354/7/6
f 351/7/6 352/7/6 355/7/6
f 355/7/6 352/7/6 356/7/6
f 357/6/6 358/6/6 359/6/6
f 359/6/6 358/6/6 360/6/6
f 361/6/6 362/6/6 363/6/6
f 363/6/6 362/6/6 364/6/6
f 365/1/6 366/1/6 368/1/6
f 366/2/6 367/2/6 369/2/6
f 368/1/6 366/1/6 369/1/6
f 369/2/6 367/2/6 370/2/6
f 371/2/6 372/2/6 374/2/6
f 372/1/6 373/1/6 375/1/6
f 374/2/6 372/2/6 375/2/6
f 375/1/6 373/1/6 376/1/6
f 377/7/6 378/7/6 381/7/6
f 381/7/6 378/7/6 382/7/6
f 379/7/6 380/7/6 383/7/6
f 383/7/6 380/7/6 384/7/6
f 385/7/6 386/7/6 387/7/6
f 387/7/6 386/7/6 388/7/6
