# MagicaVoxel @ Ephtracy

# material
mtllib Velocidad_Up.mtl
usemtl palette

# normals
vn -1 0 0
vn 1 0 0
vn 0 0 1
vn 0 0 -1
vn 0 -1 0
vn 0 1 0

# texcoords
vt 0.00195313 0.5
vt 0.0605469 0.5
vt 0.408203 0.5
vt 0.533203 0.5
vt 0.658203 0.5
vt 0.720703 0.5

# verts
v -6 7 1
v -6 7 -2
v -6 17 1
v -6 17 -2
v -5 6 1
v -5 6 -2
v -5 7 1
v -5 7 -2
v -5 17 1
v -5 17 -2
v -5 18 1
v -5 18 -2
v -4 9 1
v -4 9 -0
v -4 12 1
v -4 12 -0
v -4 14 -1
v -4 14 -2
v -4 15 -1
v -4 15 -2
v -3 9 -1
v -3 9 -2
v -3 11 -1
v -3 11 -2
v -3 14 -1
v -3 14 -2
v -2 12 1
v -2 12 -0
v -2 13 1
v -2 13 -0
v -1 13 1
v -1 13 -0
v -1 14 1
v -1 14 -0
v -1 15 1
v -1 15 -0
v -1 15 -1
v -1 15 -2
v -1 16 1
v -1 16 -0
v -1 16 -1
v -1 16 -2
v 0 14 1
v 0 14 -0
v 0 15 1
v 0 15 -0
v 4 7 1
v 4 7 -0
v 4 7 -1
v 4 7 -2
v 4 8 1
v 4 8 -0
v 4 8 -1
v 4 8 -2
v 4 16 1
v 4 16 -0
v 4 16 -1
v 4 16 -2
v 4 17 1
v 4 17 -0
v 4 17 -1
v 4 17 -2
v 5 8 1
v 5 8 -0
v 5 8 -1
v 5 8 -2
v 5 16 1
v 5 16 -0
v 5 16 -1
v 5 16 -2
v -5 8 1
v -5 8 -0
v -5 8 -1
v -5 8 -2
v -5 16 1
v -5 16 -0
v -5 16 -1
v -5 16 -2
v -4 7 1
v -4 7 -0
v -4 7 -1
v -4 7 -2
v -4 8 1
v -4 8 -0
v -4 8 -1
v -4 8 -2
v -4 16 1
v -4 16 -0
v -4 16 -1
v -4 16 -2
v -4 17 1
v -4 17 -0
v -4 17 -1
v -4 17 -2
v 0 14 -1
v 0 14 -2
v 0 15 -1
v 0 15 -2
v 1 13 -1
v 1 13 -2
v 1 14 -1
v 1 14 -2
v 1 15 1
v 1 15 -0
v 1 15 -1
v 1 15 -2
v 1 16 1
v 1 16 -0
v 1 16 -1
v 1 16 -2
v 2 12 -1
v 2 12 -2
v 2 13 -1
v 2 13 -2
v 3 9 1
v 3 9 -0
v 3 11 1
v 3 11 -0
v 3 14 1
v 3 14 -0
v 4 9 -1
v 4 9 -2
v 4 12 -1
v 4 12 -2
v 4 14 1
v 4 14 -0
v 4 15 1
v 4 15 -0
v 5 6 1
v 5 6 -2
v 5 7 1
v 5 7 -2
v 5 17 1
v 5 17 -2
v 5 18 1
v 5 18 -2
v 6 7 1
v 6 7 -2
v 6 17 1
v 6 17 -2
v -6 7 1
v -6 17 1
v -5 6 1
v -5 7 1
v -5 8 1
v -5 16 1
v -5 17 1
v -5 18 1
v -4 7 1
v -4 8 1
v -4 9 1
v -4 12 1
v -4 16 1
v -4 17 1
v -2 11 1
v -2 12 1
v -2 13 1
v -1 10 1
v -1 11 1
v -1 12 1
v -1 13 1
v -1 14 1
v -1 15 1
v -1 16 1
v 0 11 1
v 0 12 1
v 0 13 1
v 0 14 1
v 0 15 1
v 1 12 1
v 1 13 1
v 1 15 1
v 1 16 1
v 2 10 1
v 2 11 1
v 3 9 1
v 3 11 1
v 3 14 1
v 4 7 1
v 4 8 1
v 4 14 1
v 4 15 1
v 4 16 1
v 4 17 1
v 5 6 1
v 5 7 1
v 5 8 1
v 5 16 1
v 5 17 1
v 5 18 1
v 6 7 1
v 6 17 1
v -5 8 -0
v -5 16 -0
v -4 7 -0
v -4 8 -0
v -4 9 -0
v -4 12 -0
v -4 16 -0
v -4 17 -0
v -2 12 -0
v -2 13 -0
v -1 13 -0
v -1 14 -0
v -1 15 -0
v -1 16 -0
v 0 14 -0
v 0 15 -0
v 1 15 -0
v 1 16 -0
v 3 9 -0
v 3 11 -0
v 3 14 -0
v 4 7 -0
v 4 8 -0
v 4 14 -0
v 4 15 -0
v 4 16 -0
v 4 17 -0
v 5 8 -0
v 5 16 -0
v -5 8 -1
v -5 16 -1
v -4 7 -1
v -4 8 -1
v -4 14 -1
v -4 15 -1
v -4 16 -1
v -4 17 -1
v -3 9 -1
v -3 11 -1
v -3 14 -1
v -1 15 -1
v -1 16 -1
v 0 14 -1
v 0 15 -1
v 1 13 -1
v 1 14 -1
v 1 15 -1
v 1 16 -1
v 2 12 -1
v 2 13 -1
v 4 7 -1
v 4 8 -1
v 4 9 -1
v 4 12 -1
v 4 16 -1
v 4 17 -1
v 5 8 -1
v 5 16 -1
v -6 7 -2
v -6 17 -2
v -5 6 -2
v -5 7 -2
v -5 8 -2
v -5 16 -2
v -5 17 -2
v -5 18 -2
v -4 7 -2
v -4 8 -2
v -4 14 -2
v -4 15 -2
v -4 16 -2
v -4 17 -2
v -3 9 -2
v -3 11 -2
v -3 14 -2
v -2 10 -2
v -2 11 -2
v -1 12 -2
v -1 13 -2
v -1 15 -2
v -1 16 -2
v 0 11 -2
v 0 12 -2
v 0 13 -2
v 0 14 -2
v 0 15 -2
v 1 10 -2
v 1 11 -2
v 1 12 -2
v 1 13 -2
v 1 14 -2
v 1 15 -2
v 1 16 -2
v 2 11 -2
v 2 12 -2
v 2 13 -2
v 4 7 -2
v 4 8 -2
v 4 9 -2
v 4 12 -2
v 4 16 -2
v 4 17 -2
v 5 6 -2
v 5 7 -2
v 5 8 -2
v 5 16 -2
v 5 17 -2
v 5 18 -2
v 6 7 -2
v 6 17 -2
v -5 6 1
v 5 6 1
v -5 6 -2
v 5 6 -2
v -6 7 1
v -5 7 1
v 5 7 1
v 6 7 1
v -6 7 -2
v -5 7 -2
v 5 7 -2
v 6 7 -2
v -4 9 1
v 3 9 1
v -4 9 -0
v 3 9 -0
v -3 9 -1
v 4 9 -1
v -3 9 -2
v 4 9 -2
v 3 14 1
v 4 14 1
v 3 14 -0
v 4 14 -0
v -4 14 -1
v -3 14 -1
v -4 14 -2
v -3 14 -2
v -1 15 1
v 0 15 1
v -1 15 -0
v 0 15 -0
v 0 15 -1
v 1 15 -1
v 0 15 -2
v 1 15 -2
v -5 16 1
v -4 16 1
v 4 16 1
v 5 16 1
v -5 16 -0
v -4 16 -0
v 4 16 -0
v 5 16 -0
v -5 16 -1
v -4 16 -1
v 4 16 -1
v 5 16 -1
v -5 16 -2
v -4 16 -2
v 4 16 -2
v 5 16 -2
v -4 17 1
v 4 17 1
v -4 17 -0
v 4 17 -0
v -4 17 -1
v 4 17 -1
v -4 17 -2
v 4 17 -2
v -4 7 1
v 4 7 1
v -4 7 -0
v 4 7 -0
v -4 7 -1
v 4 7 -1
v -4 7 -2
v 4 7 -2
v -5 8 1
v -4 8 1
v 4 8 1
v 5 8 1
v -5 8 -0
v -4 8 -0
v 4 8 -0
v 5 8 -0
v -5 8 -1
v -4 8 -1
v 4 8 -1
v 5 8 -1
v -5 8 -2
v -4 8 -2
v 4 8 -2
v 5 8 -2
v -4 12 1
v -2 12 1
v -4 12 -0
v -2 12 -0
v 2 12 -1
v 4 12 -1
v 2 12 -2
v 4 12 -2
v -2 13 1
v -1 13 1
v -2 13 -0
v -1 13 -0
v 1 13 -1
v 2 13 -1
v 1 13 -2
v 2 13 -2
v -1 14 1
v 0 14 1
v -1 14 -0
v 0 14 -0
v 0 14 -1
v 1 14 -1
v 0 14 -2
v 1 14 -2
v 1 15 1
v 4 15 1
v 1 15 -0
v 4 15 -0
v -4 15 -1
v -1 15 -1
v -4 15 -2
v -1 15 -2
v -1 16 1
v 1 16 1
v -1 16 -0
v 1 16 -0
v -1 16 -1
v 1 16 -1
v -1 16 -2
v 1 16 -2
v -6 17 1
v -5 17 1
v 5 17 1
v 6 17 1
v -6 17 -2
v -5 17 -2
v 5 17 -2
v 6 17 -2
v -5 18 1
v 5 18 1
v -5 18 -2
v 5 18 -2

# faces
f 3/6/1 2/6/1 1/6/1
f 4/6/1 2/6/1 3/6/1
f 7/6/1 6/6/1 5/6/1
f 8/6/1 6/6/1 7/6/1
f 11/6/1 10/6/1 9/6/1
f 12/6/1 10/6/1 11/6/1
f 15/1/1 14/1/1 13/1/1
f 16/1/1 14/1/1 15/1/1
f 19/5/1 18/5/1 17/5/1
f 20/5/1 18/5/1 19/5/1
f 23/1/1 22/1/1 21/1/1
f 24/1/1 22/1/1 23/1/1
f 25/5/1 24/5/1 23/5/1
f 26/5/1 24/5/1 25/5/1
f 29/3/1 28/3/1 27/3/1
f 30/3/1 28/3/1 29/3/1
f 33/3/1 32/3/1 31/3/1
f 34/3/1 32/3/1 33/3/1
f 39/5/1 36/5/1 35/5/1
f 40/5/1 36/5/1 39/5/1
f 41/5/1 38/5/1 37/5/1
f 42/5/1 38/5/1 41/5/1
f 45/5/1 44/5/1 43/5/1
f 46/5/1 44/5/1 45/5/1
f 51/6/1 48/6/1 47/6/1
f 52/6/1 48/6/1 51/6/1
f 53/6/1 50/6/1 49/6/1
f 54/6/1 50/6/1 53/6/1
f 59/6/1 56/6/1 55/6/1
f 60/6/1 56/6/1 59/6/1
f 61/6/1 58/6/1 57/6/1
f 62/6/1 58/6/1 61/6/1
f 67/6/1 64/6/1 63/6/1
f 68/6/1 64/6/1 67/6/1
f 69/6/1 66/6/1 65/6/1
f 70/6/1 66/6/1 69/6/1
f 71/6/2 72/6/2 75/6/2
f 75/6/2 72/6/2 76/6/2
f 73/6/2 74/6/2 77/6/2
f 77/6/2 74/6/2 78/6/2
f 79/6/2 80/6/2 83/6/2
f 83/6/2 80/6/2 84/6/2
f 81/6/2 82/6/2 85/6/2
f 85/6/2 82/6/2 86/6/2
f 87/6/2 88/6/2 91/6/2
f 91/6/2 88/6/2 92/6/2
f 89/6/2 90/6/2 93/6/2
f 93/6/2 90/6/2 94/6/2
f 95/5/2 96/5/2 97/5/2
f 97/5/2 96/5/2 98/5/2
f 99/3/2 100/3/2 101/3/2
f 101/3/2 100/3/2 102/3/2
f 103/5/2 104/5/2 107/5/2
f 107/5/2 104/5/2 108/5/2
f 105/5/2 106/5/2 109/5/2
f 109/5/2 106/5/2 110/5/2
f 111/3/2 112/3/2 113/3/2
f 113/3/2 112/3/2 114/3/2
f 115/1/2 116/1/2 117/1/2
f 117/1/2 116/1/2 118/1/2
f 117/5/2 118/5/2 119/5/2
f 119/5/2 118/5/2 120/5/2
f 121/1/2 122/1/2 123/1/2
f 123/1/2 122/1/2 124/1/2
f 125/5/2 126/5/2 127/5/2
f 127/5/2 126/5/2 128/5/2
f 129/6/2 130/6/2 131/6/2
f 131/6/2 130/6/2 132/6/2
f 133/6/2 134/6/2 135/6/2
f 135/6/2 134/6/2 136/6/2
f 137/6/2 138/6/2 139/6/2
f 139/6/2 138/6/2 140/6/2
f 144/6/3 142/6/3 141/6/3
f 145/6/3 142/6/3 144/6/3
f 146/6/3 142/6/3 145/6/3
f 147/6/3 142/6/3 146/6/3
f 149/6/3 144/6/3 143/6/3
f 149/6/3 145/6/3 144/6/3
f 150/6/3 145/6/3 149/6/3
f 153/6/3 148/6/3 147/6/3
f 153/6/3 147/6/3 146/6/3
f 154/6/3 148/6/3 153/6/3
f 155/1/3 152/1/3 151/1/3
f 156/1/3 152/1/3 155/1/3
f 158/1/3 155/1/3 151/1/3
f 159/5/3 156/5/3 155/5/3
f 159/1/3 155/1/3 158/1/3
f 160/3/3 157/3/3 156/3/3
f 160/5/3 156/5/3 159/5/3
f 161/3/3 157/3/3 160/3/3
f 165/5/3 159/5/3 158/5/3
f 165/3/3 160/3/3 159/3/3
f 166/5/3 161/5/3 160/5/3
f 166/3/3 160/3/3 165/3/3
f 167/3/3 162/3/3 161/3/3
f 167/5/3 161/5/3 166/5/3
f 168/3/3 162/3/3 167/3/3
f 169/5/3 164/5/3 163/5/3
f 170/5/3 166/5/3 165/5/3
f 170/3/3 167/3/3 166/3/3
f 171/5/3 168/5/3 167/5/3
f 171/3/3 167/3/3 170/3/3
f 171/5/3 169/5/3 168/5/3
f 172/5/3 164/5/3 169/5/3
f 172/5/3 169/5/3 171/5/3
f 173/5/3 164/5/3 172/5/3
f 174/5/3 170/5/3 165/5/3
f 174/1/3 158/1/3 151/1/3
f 174/5/3 172/5/3 171/5/3
f 174/5/3 171/5/3 170/5/3
f 174/5/3 165/5/3 158/5/3
f 175/5/3 172/5/3 174/5/3
f 176/1/3 174/1/3 151/1/3
f 176/1/3 175/1/3 174/1/3
f 177/5/3 172/5/3 175/5/3
f 177/1/3 175/1/3 176/1/3
f 178/5/3 172/5/3 177/5/3
f 179/6/3 149/6/3 143/6/3
f 181/5/3 172/5/3 178/5/3
f 182/5/3 172/5/3 181/5/3
f 184/6/3 148/6/3 154/6/3
f 185/6/3 180/6/3 179/6/3
f 185/6/3 179/6/3 143/6/3
f 186/6/3 180/6/3 185/6/3
f 187/6/3 180/6/3 186/6/3
f 188/6/3 184/6/3 183/6/3
f 189/6/3 148/6/3 184/6/3
f 189/6/3 184/6/3 188/6/3
f 190/6/3 148/6/3 189/6/3
f 191/6/3 187/6/3 186/6/3
f 191/6/3 188/6/3 187/6/3
f 191/6/3 189/6/3 188/6/3
f 192/6/3 189/6/3 191/6/3
f 196/2/3 194/2/3 193/2/3
f 197/2/3 194/2/3 196/2/3
f 198/2/3 194/2/3 197/2/3
f 199/2/3 194/2/3 198/2/3
f 201/2/3 200/2/3 199/2/3
f 201/2/3 199/2/3 198/2/3
f 202/2/3 200/2/3 201/2/3
f 203/2/3 200/2/3 202/2/3
f 204/2/3 200/2/3 203/2/3
f 205/2/3 200/2/3 204/2/3
f 206/2/3 200/2/3 205/2/3
f 207/2/3 205/2/3 204/2/3
f 208/2/3 205/2/3 207/2/3
f 210/2/3 200/2/3 206/2/3
f 211/2/3 196/2/3 195/2/3
f 211/2/3 197/2/3 196/2/3
f 214/2/3 211/2/3 195/2/3
f 214/2/3 213/2/3 212/2/3
f 214/2/3 212/2/3 211/2/3
f 215/2/3 213/2/3 214/2/3
f 216/2/3 213/2/3 215/2/3
f 217/2/3 210/2/3 209/2/3
f 218/2/3 200/2/3 210/2/3
f 218/2/3 210/2/3 217/2/3
f 219/2/3 200/2/3 218/2/3
f 220/2/3 216/2/3 215/2/3
f 220/2/3 217/2/3 216/2/3
f 220/2/3 218/2/3 217/2/3
f 221/2/3 218/2/3 220/2/3
f 222/2/4 223/2/4 225/2/4
f 225/2/4 223/2/4 226/2/4
f 226/2/4 223/2/4 227/2/4
f 227/2/4 223/2/4 228/2/4
f 224/2/4 225/2/4 230/2/4
f 225/2/4 226/2/4 230/2/4
f 230/2/4 226/2/4 231/2/4
f 231/2/4 226/2/4 232/2/4
f 228/2/4 229/2/4 233/2/4
f 227/2/4 228/2/4 233/2/4
f 233/2/4 229/2/4 234/2/4
f 235/2/4 236/2/4 238/2/4
f 238/2/4 236/2/4 239/2/4
f 234/2/4 229/2/4 240/2/4
f 238/2/4 239/2/4 242/2/4
f 239/2/4 240/2/4 242/2/4
f 237/2/4 238/2/4 242/2/4
f 224/2/4 230/2/4 243/2/4
f 243/2/4 230/2/4 244/2/4
f 244/2/4 230/2/4 245/2/4
f 241/2/4 242/2/4 246/2/4
f 240/2/4 229/2/4 247/2/4
f 242/2/4 240/2/4 247/2/4
f 246/2/4 242/2/4 247/2/4
f 247/2/4 229/2/4 248/2/4
f 244/2/4 245/2/4 249/2/4
f 245/2/4 246/2/4 249/2/4
f 246/2/4 247/2/4 249/2/4
f 249/2/4 247/2/4 250/2/4
f 251/6/4 252/6/4 254/6/4
f 254/6/4 252/6/4 255/6/4
f 255/6/4 252/6/4 256/6/4
f 256/6/4 252/6/4 257/6/4
f 253/6/4 254/6/4 259/6/4
f 254/6/4 255/6/4 259/6/4
f 259/6/4 255/6/4 260/6/4
f 257/6/4 258/6/4 263/6/4
f 256/6/4 257/6/4 263/6/4
f 263/6/4 258/6/4 264/6/4
f 261/5/4 262/5/4 267/5/4
f 265/1/4 266/1/4 268/1/4
f 266/5/4 267/5/4 269/5/4
f 268/1/4 266/1/4 269/1/4
f 268/5/4 269/5/4 270/5/4
f 269/5/4 267/5/4 270/5/4
f 270/5/4 267/5/4 271/5/4
f 267/5/4 262/5/4 272/5/4
f 271/5/4 267/5/4 272/5/4
f 268/5/4 270/5/4 274/5/4
f 270/3/4 271/3/4 275/3/4
f 274/5/4 270/5/4 275/5/4
f 272/5/4 273/5/4 276/5/4
f 275/3/4 271/3/4 276/3/4
f 271/5/4 272/5/4 276/5/4
f 276/5/4 273/5/4 277/5/4
f 277/5/4 273/5/4 278/5/4
f 265/1/4 268/1/4 279/1/4
f 268/5/4 274/5/4 279/5/4
f 274/3/4 275/3/4 280/3/4
f 279/5/4 274/5/4 280/5/4
f 275/5/4 276/5/4 281/5/4
f 280/3/4 275/3/4 281/3/4
f 276/3/4 277/3/4 282/3/4
f 281/5/4 276/5/4 282/5/4
f 282/3/4 277/3/4 283/3/4
f 278/5/4 273/5/4 284/5/4
f 284/5/4 273/5/4 285/5/4
f 280/5/4 281/5/4 286/5/4
f 279/1/4 280/1/4 286/1/4
f 281/3/4 282/3/4 287/3/4
f 286/5/4 281/5/4 287/5/4
f 287/3/4 282/3/4 288/3/4
f 253/6/4 259/6/4 289/6/4
f 265/1/4 279/1/4 291/1/4
f 279/1/4 286/1/4 291/1/4
f 286/1/4 287/1/4 291/1/4
f 291/1/4 287/1/4 292/1/4
f 264/6/4 258/6/4 294/6/4
f 253/6/4 289/6/4 295/6/4
f 289/6/4 290/6/4 295/6/4
f 295/6/4 290/6/4 296/6/4
f 296/6/4 290/6/4 297/6/4
f 293/6/4 294/6/4 298/6/4
f 294/6/4 258/6/4 299/6/4
f 298/6/4 294/6/4 299/6/4
f 299/6/4 258/6/4 300/6/4
f 296/6/4 297/6/4 301/6/4
f 297/6/4 298/6/4 301/6/4
f 298/6/4 299/6/4 301/6/4
f 301/6/4 299/6/4 302/6/4
f 305/6/5 304/6/5 303/6/5
f 306/6/5 304/6/5 305/6/5
f 311/6/5 308/6/5 307/6/5
f 312/6/5 308/6/5 311/6/5
f 313/6/5 310/6/5 309/6/5
f 314/6/5 310/6/5 313/6/5
f 317/1/5 316/1/5 315/1/5
f 318/1/5 316/1/5 317/1/5
f 321/1/5 320/1/5 319/1/5
f 322/1/5 320/1/5 321/1/5
f 325/5/5 324/5/5 323/5/5
f 326/5/5 324/5/5 325/5/5
f 329/5/5 328/5/5 327/5/5
f 330/5/5 328/5/5 329/5/5
f 333/5/5 332/5/5 331/5/5
f 334/5/5 332/5/5 333/5/5
f 337/5/5 336/5/5 335/5/5
f 338/5/5 336/5/5 337/5/5
f 343/6/5 340/6/5 339/6/5
f 344/6/5 340/6/5 343/6/5
f 345/6/5 342/6/5 341/6/5
f 346/6/5 342/6/5 345/6/5
f 351/6/5 348/6/5 347/6/5
f 352/6/5 348/6/5 351/6/5
f 353/6/5 350/6/5 349/6/5
f 354/6/5 350/6/5 353/6/5
f 357/6/5 356/6/5 355/6/5
f 358/6/5 356/6/5 357/6/5
f 361/6/5 360/6/5 359/6/5
f 362/6/5 360/6/5 361/6/5
f 363/6/6 364/6/6 365/6/6
f 365/6/6 364/6/6 366/6/6
f 367/6/6 368/6/6 369/6/6
f 369/6/6 368/6/6 370/6/6
f 371/6/6 372/6/6 375/6/6
f 375/6/6 372/6/6 376/6/6
f 373/6/6 374/6/6 377/6/6
f 377/6/6 374/6/6 378/6/6
f 379/6/6 380/6/6 383/6/6
f 383/6/6 380/6/6 384/6/6
f 381/6/6 382/6/6 385/6/6
f 385/6/6 382/6/6 386/6/6
f 387/1/6 388/1/6 389/1/6
f 389/1/6 388/1/6 390/1/6
f 391/1/6 392/1/6 393/1/6
f 393/1/6 392/1/6 394/1/6
f 395/3/6 396/3/6 397/3/6
f 397/3/6 396/3/6 398/3/6
f 399/3/6 400/3/6 401/3/6
f 401/3/6 400/3/6 402/3/6
f 403/3/6 404/3/6 405/3/6
f 405/3/6 404/3/6 406/3/6
f 407/3/6 408/3/6 409/3/6
f 409/3/6 408/3/6 410/3/6
f 411/5/6 412/5/6 413/5/6
f 413/5/6 412/5/6 414/5/6
f 415/5/6 416/5/6 417/5/6
f 417/5/6 416/5/6 418/5/6
f 419/5/6 420/5/6 421/5/6
f 421/5/6 420/5/6 422/5/6
f 423/5/6 424/5/6 425/5/6
f 425/5/6 424/5/6 426/5/6
f 427/6/6 428/6/6 431/6/6
f 431/6/6 428/6/6 432/6/6
f 429/6/6 430/6/6 433/6/6
f 433/6/6 430/6/6 434/6/6
f 435/6/6 436/6/6 437/6/6
f 437/6/6 436/6/6 438/6/6
