# MagicaVoxel @ Ephtracy

# material
mtllib character_One_Idle1-03.mtl
usemtl palette

# normals
vn -1 0 0
vn 1 0 0
vn 0 0 1
vn 0 0 -1
vn 0 -1 0
vn 0 1 0

# texcoords
vt 0.0644531 0.5
vt 0.103516 0.5
vt 0.130859 0.5
vt 0.185547 0.5
vt 0.517578 0.5
vt 0.544922 0.5
vt 0.626953 0.5
vt 0.787109 0.5
vt 0.876953 0.5
vt 0.943359 0.5
vt 0.978516 0.5
vt 0.990234 0.5
vt 0.994141 0.5

# verts
v -5 16 -2
v -5 16 -3
v -5 17 -1
v -5 17 -2
v -5 18 -0
v -5 18 -1
v -5 18 -2
v -5 18 -3
v -5 19 -1
v -5 19 -2
v -5 20 -0
v -5 20 -1
v -4 0 -0
v -4 0 -2
v -4 1 -0
v -4 1 -1
v -4 1 -2
v -4 11 1
v -4 11 -0
v -4 12 1
v -4 12 -1
v -4 12 -2
v -4 16 -2
v -4 17 -1
v -4 17 -2
v -4 17 -3
v -4 17 -4
v -4 18 -0
v -4 18 -1
v -4 18 -3
v -4 18 -4
v -4 19 -1
v -4 19 -2
v -4 20 -0
v -4 20 -1
v -4 21 1
v -4 21 -2
v -4 25 -0
v -4 25 -1
v -4 26 -0
v -4 26 -1
v -3 10 1
v -3 10 -0
v -3 11 1
v -3 11 -0
v -3 19 2
v -3 19 1
v -3 21 1
v -3 21 -2
v -3 22 2
v -3 22 -2
v -3 23 1
v -3 23 -0
v -3 23 -2
v -3 25 -0
v -3 25 -1
v -3 25 -2
v -3 26 -0
v -3 26 -1
v -3 28 -1
v -3 28 -2
v -3 29 1
v -3 29 -2
v -2 22 -0
v -2 22 -1
v -2 23 -0
v -2 23 -1
v -2 26 3
v -2 26 1
v -2 28 -2
v -2 28 -3
v -2 29 1
v -2 29 -2
v -2 30 3
v -2 30 2
v -2 31 2
v -2 31 -3
v -1 17 -2
v -1 17 -3
v -1 18 -2
v -1 18 -3
v 0 16 -2
v 0 16 -4
v 0 17 -2
v 0 17 -4
v 0 20 -1
v 0 20 -2
v 0 21 -1
v 0 21 -2
v 1 21 -1
v 1 21 -2
v 1 22 -1
v 1 22 -2
v 2 6 -0
v 2 6 -1
v 2 10 -0
v 2 10 -1
v 2 12 -1
v 2 12 -2
v 2 13 -1
v 2 13 -2
v 3 3 -1
v 3 3 -2
v 3 6 -1
v 3 7 -1
v 3 7 -2
v 4 0 -1
v 4 0 -3
v 4 1 -1
v 4 1 -2
v 4 1 -3
v 4 3 -1
v 4 3 -2
v -4 17 -2
v -4 17 -3
v -4 18 -2
v -4 18 -3
v -3 0 -0
v -3 0 -2
v -3 1 -0
v -3 1 -1
v -3 1 -2
v -3 10 -0
v -3 10 -1
v -3 12 -1
v -3 12 -2
v -3 13 -1
v -3 13 -2
v -2 21 -1
v -2 21 -2
v -2 22 -1
v -2 22 -2
v -1 16 -2
v -1 16 -3
v -1 17 -2
v -1 17 -3
v -1 20 -1
v -1 20 -2
v -1 21 -1
v -1 21 -2
v 1 17 -3
v 1 17 -4
v 1 18 -3
v 1 18 -4
v 1 22 -0
v 1 22 -1
v 1 23 -0
v 1 23 -1
v 1 26 3
v 1 26 1
v 1 28 -2
v 1 28 -3
v 1 29 1
v 1 29 -2
v 1 30 3
v 1 30 2
v 1 31 2
v 1 31 -3
v 2 10 1
v 2 10 -0
v 2 11 1
v 2 11 -0
v 2 19 2
v 2 19 1
v 2 21 1
v 2 21 -2
v 2 22 2
v 2 22 -2
v 2 23 1
v 2 23 -0
v 2 23 -2
v 2 25 -0
v 2 25 -1
v 2 25 -2
v 2 26 -0
v 2 26 -1
v 2 28 -1
v 2 28 -2
v 2 29 1
v 2 29 -2
v 3 6 -0
v 3 6 -1
v 3 7 -1
v 3 11 1
v 3 11 -0
v 3 12 1
v 3 12 -1
v 3 12 -2
v 3 16 -2
v 3 17 -1
v 3 17 -2
v 3 18 -0
v 3 18 -1
v 3 19 -1
v 3 19 -2
v 3 20 -0
v 3 20 -1
v 3 21 1
v 3 21 -2
v 3 25 -0
v 3 25 -1
v 3 26 -0
v 3 26 -1
v 4 4 -1
v 4 4 -2
v 4 7 -1
v 4 7 -2
v 4 16 -2
v 4 16 -4
v 4 17 -1
v 4 17 -2
v 4 17 -3
v 4 17 -4
v 4 18 -0
v 4 18 -1
v 4 18 -2
v 4 18 -3
v 4 19 -1
v 4 19 -2
v 4 20 -0
v 4 20 -1
v 5 0 -1
v 5 0 -3
v 5 1 -1
v 5 1 -2
v 5 1 -3
v 5 4 -1
v 5 4 -2
v -2 26 3
v -2 30 3
v 1 26 3
v 1 30 3
v -3 19 2
v -3 22 2
v -2 30 2
v -2 31 2
v 1 30 2
v 1 31 2
v 2 19 2
v 2 22 2
v -4 11 1
v -4 12 1
v -4 21 1
v -3 10 1
v -3 11 1
v -3 15 1
v -3 16 1
v -3 19 1
v -3 21 1
v -3 23 1
v -3 29 1
v -2 14 1
v -2 15 1
v -2 16 1
v -2 17 1
v -2 18 1
v -2 19 1
v -2 26 1
v -2 29 1
v -1 14 1
v -1 15 1
v -1 16 1
v -1 17 1
v -1 18 1
v -1 19 1
v 0 14 1
v 0 15 1
v 0 16 1
v 0 17 1
v 0 18 1
v 0 19 1
v 1 14 1
v 1 15 1
v 1 16 1
v 1 17 1
v 1 18 1
v 1 19 1
v 1 26 1
v 1 29 1
v 2 10 1
v 2 11 1
v 2 17 1
v 2 18 1
v 2 19 1
v 2 21 1
v 2 23 1
v 2 29 1
v 3 11 1
v 3 12 1
v 3 21 1
v -5 18 -0
v -5 20 -0
v -4 0 -0
v -4 1 -0
v -4 11 -0
v -4 18 -0
v -4 20 -0
v -4 25 -0
v -4 26 -0
v -3 0 -0
v -3 1 -0
v -3 10 -0
v -3 11 -0
v -3 25 -0
v -3 26 -0
v -2 22 -0
v -2 23 -0
v 1 22 -0
v 1 23 -0
v 2 6 -0
v 2 10 -0
v 2 11 -0
v 2 25 -0
v 2 26 -0
v 3 6 -0
v 3 11 -0
v 3 18 -0
v 3 20 -0
v 3 25 -0
v 3 26 -0
v 4 18 -0
v 4 20 -0
v -5 17 -1
v -5 18 -1
v -4 17 -1
v -4 18 -1
v 3 3 -1
v 3 6 -1
v 3 7 -1
v 3 17 -1
v 3 18 -1
v 4 0 -1
v 4 1 -1
v 4 3 -1
v 4 4 -1
v 4 7 -1
v 4 17 -1
v 4 18 -1
v 5 0 -1
v 5 1 -1
v 5 4 -1
v -5 16 -2
v -5 17 -2
v -4 16 -2
v -4 17 -2
v 3 16 -2
v 3 17 -2
v 4 16 -2
v 4 17 -2
v -4 17 -3
v -4 18 -3
v -3 17 -3
v -3 18 -3
v -1 17 -3
v -1 18 -3
v -5 19 -1
v -5 20 -1
v -4 1 -1
v -4 12 -1
v -4 19 -1
v -4 20 -1
v -4 25 -1
v -4 26 -1
v -3 1 -1
v -3 10 -1
v -3 12 -1
v -3 13 -1
v -3 25 -1
v -3 26 -1
v -2 13 -1
v -2 21 -1
v -2 22 -1
v -2 23 -1
v -1 20 -1
v -1 21 -1
v 0 20 -1
v 0 21 -1
v 1 13 -1
v 1 21 -1
v 1 22 -1
v 1 23 -1
v 2 6 -1
v 2 10 -1
v 2 12 -1
v 2 13 -1
v 2 25 -1
v 2 26 -1
v 3 6 -1
v 3 7 -1
v 3 12 -1
v 3 19 -1
v 3 20 -1
v 3 25 -1
v 3 26 -1
v 4 19 -1
v 4 20 -1
v -5 18 -2
v -5 19 -2
v -4 0 -2
v -4 1 -2
v -4 12 -2
v -4 16 -2
v -4 17 -2
v -4 18 -2
v -4 19 -2
v -4 21 -2
v -3 0 -2
v -3 1 -2
v -3 12 -2
v -3 13 -2
v -3 20 -2
v -3 21 -2
v -3 22 -2
v -3 23 -2
v -3 25 -2
v -3 28 -2
v -3 29 -2
v -2 13 -2
v -2 14 -2
v -2 15 -2
v -2 16 -2
v -2 17 -2
v -2 18 -2
v -2 20 -2
v -2 21 -2
v -2 22 -2
v -2 24 -2
v -2 25 -2
v -2 26 -2
v -2 27 -2
v -2 28 -2
v -2 29 -2
v -1 14 -2
v -1 15 -2
v -1 16 -2
v -1 17 -2
v -1 18 -2
v -1 19 -2
v -1 20 -2
v -1 21 -2
v -1 26 -2
v -1 27 -2
v 0 15 -2
v 0 16 -2
v 0 17 -2
v 0 18 -2
v 0 19 -2
v 0 20 -2
v 0 21 -2
v 0 26 -2
v 0 27 -2
v 1 13 -2
v 1 16 -2
v 1 18 -2
v 1 19 -2
v 1 20 -2
v 1 21 -2
v 1 22 -2
v 1 24 -2
v 1 25 -2
v 1 26 -2
v 1 27 -2
v 1 28 -2
v 1 29 -2
v 2 12 -2
v 2 13 -2
v 2 18 -2
v 2 20 -2
v 2 21 -2
v 2 22 -2
v 2 23 -2
v 2 25 -2
v 2 28 -2
v 2 29 -2
v 3 3 -2
v 3 7 -2
v 3 12 -2
v 3 16 -2
v 3 18 -2
v 3 19 -2
v 3 21 -2
v 4 1 -2
v 4 3 -2
v 4 4 -2
v 4 7 -2
v 4 18 -2
v 4 19 -2
v 5 1 -2
v 5 4 -2
v -5 16 -3
v -5 18 -3
v -4 17 -3
v -4 18 -3
v -3 17 -3
v -2 28 -3
v -2 31 -3
v -1 16 -3
v -1 17 -3
v 1 17 -3
v 1 18 -3
v 1 28 -3
v 1 31 -3
v 2 17 -3
v 2 18 -3
v 3 17 -3
v 3 18 -3
v 4 0 -3
v 4 1 -3
v 4 17 -3
v 4 18 -3
v 5 0 -3
v 5 1 -3
v -4 17 -4
v -4 18 -4
v -3 17 -4
v -3 18 -4
v 0 16 -4
v 0 17 -4
v 1 17 -4
v 1 18 -4
v 4 16 -4
v 4 17 -4
v -4 0 -0
v -3 0 -0
v 4 0 -1
v 5 0 -1
v -4 0 -2
v -3 0 -2
v 4 0 -3
v 5 0 -3
v 3 3 -1
v 4 3 -1
v 3 3 -2
v 4 3 -2
v 2 6 -0
v 3 6 -0
v 2 6 -1
v 3 6 -1
v -3 10 1
v 2 10 1
v -3 10 -0
v 2 10 -0
v -3 10 -1
v 2 10 -1
v -4 11 1
v -3 11 1
v 2 11 1
v 3 11 1
v -4 11 -0
v -3 11 -0
v 2 11 -0
v 3 11 -0
v -4 12 -1
v -3 12 -1
v 2 12 -1
v 3 12 -1
v -4 12 -2
v -3 12 -2
v 2 12 -2
v 3 12 -2
v -3 13 -1
v -2 13 -1
v 1 13 -1
v 2 13 -1
v -3 13 -2
v -2 13 -2
v 1 13 -2
v 2 13 -2
v -5 16 -2
v -4 16 -2
v -2 16 -2
v -1 16 -2
v 0 16 -2
v 1 16 -2
v 3 16 -2
v 4 16 -2
v -5 16 -3
v -1 16 -3
v 0 16 -4
v 4 16 -4
v -5 17 -1
v -4 17 -1
v 3 17 -1
v 4 17 -1
v -5 17 -2
v -4 17 -2
v -1 17 -2
v 0 17 -2
v 3 17 -2
v 4 17 -2
v -4 17 -3
v -3 17 -3
v -1 17 -3
v -4 17 -4
v -3 17 -4
v 0 17 -4
v -5 18 -0
v -4 18 -0
v 3 18 -0
v 4 18 -0
v -5 18 -1
v -4 18 -1
v 3 18 -1
v 4 18 -1
v -3 19 2
v 2 19 2
v -3 19 1
v -2 19 1
v -1 19 1
v 0 19 1
v 1 19 1
v 2 19 1
v -3 23 1
v 2 23 1
v -3 23 -0
v -2 23 -0
v 1 23 -0
v 2 23 -0
v -2 23 -1
v 1 23 -1
v -3 23 -2
v 2 23 -2
v -4 25 -0
v -3 25 -0
v 2 25 -0
v 3 25 -0
v -4 25 -1
v -3 25 -1
v 2 25 -1
v 3 25 -1
v -2 26 3
v 1 26 3
v -2 26 1
v 1 26 1
v -2 28 -2
v 1 28 -2
v -2 28 -3
v 1 28 -3
v -4 1 -1
v -3 1 -1
v -4 1 -2
v -3 1 -2
v 4 1 -2
v 5 1 -2
v 4 1 -3
v 5 1 -3
v 4 4 -1
v 5 4 -1
v 4 4 -2
v 5 4 -2
v 3 7 -1
v 4 7 -1
v 3 7 -2
v 4 7 -2
v -4 17 -2
v -2 17 -2
v -1 17 -2
v -4 17 -3
v -3 17 -3
v -1 17 -3
v 1 17 -3
v 2 17 -3
v 3 17 -3
v 4 17 -3
v 1 17 -4
v 4 17 -4
v -5 18 -2
v -4 18 -2
v -1 18 -2
v 0 18 -2
v 1 18 -2
v 2 18 -2
v 3 18 -2
v 4 18 -2
v -5 18 -3
v -4 18 -3
v -3 18 -3
v -1 18 -3
v 1 18 -3
v 2 18 -3
v 3 18 -3
v 4 18 -3
v -4 18 -4
v -3 18 -4
v 1 18 -4
v -5 19 -1
v -4 19 -1
v 3 19 -1
v 4 19 -1
v -5 19 -2
v -4 19 -2
v 3 19 -2
v 4 19 -2
v -5 20 -0
v -4 20 -0
v 3 20 -0
v 4 20 -0
v -5 20 -1
v -4 20 -1
v -1 20 -1
v 0 20 -1
v 3 20 -1
v 4 20 -1
v -1 20 -2
v 0 20 -2
v -4 21 1
v -3 21 1
v 2 21 1
v 3 21 1
v -2 21 -1
v -1 21 -1
v 0 21 -1
v 1 21 -1
v -4 21 -2
v -3 21 -2
v -2 21 -2
v -1 21 -2
v 0 21 -2
v 1 21 -2
v 2 21 -2
v 3 21 -2
v -3 22 2
v 2 22 2
v -2 22 -0
v 1 22 -0
v -2 22 -1
v 1 22 -1
v -3 22 -2
v -2 22 -2
v 1 22 -2
v 2 22 -2
v -4 26 -0
v -3 26 -0
v 2 26 -0
v 3 26 -0
v -4 26 -1
v -3 26 -1
v 2 26 -1
v 3 26 -1
v -3 29 1
v -2 29 1
v 1 29 1
v 2 29 1
v -3 29 -2
v -2 29 -2
v 1 29 -2
v 2 29 -2
v -2 30 3
v 1 30 3
v -2 30 2
v 1 30 2
v -2 31 2
v 1 31 2
v -2 31 -3
v 1 31 -3

# faces
f 4/12/1 2/12/1 1/12/1
f 6/12/1 4/12/1 3/12/1
f 7/12/1 2/12/1 4/12/1
f 7/12/1 4/12/1 6/12/1
f 8/12/1 2/12/1 7/12/1
f 9/11/1 6/11/1 5/11/1
f 9/12/1 7/12/1 6/12/1
f 10/12/1 7/12/1 9/12/1
f 11/11/1 9/11/1 5/11/1
f 12/11/1 9/11/1 11/11/1
f 15/13/1 14/13/1 13/13/1
f 16/13/1 14/13/1 15/13/1
f 17/13/1 14/13/1 16/13/1
f 19/8/1 16/8/1 15/8/1
f 20/8/1 19/8/1 18/8/1
f 21/8/1 16/8/1 19/8/1
f 21/8/1 19/8/1 20/8/1
f 23/12/1 21/12/1 20/12/1
f 23/12/1 22/12/1 21/12/1
f 24/12/1 23/12/1 20/12/1
f 25/12/1 23/12/1 24/12/1
f 28/12/1 24/12/1 20/12/1
f 29/12/1 24/12/1 28/12/1
f 30/1/1 27/1/1 26/1/1
f 31/1/1 27/1/1 30/1/1
f 34/12/1 28/12/1 20/12/1
f 35/12/1 33/12/1 32/12/1
f 36/12/1 34/12/1 20/12/1
f 36/12/1 35/12/1 34/12/1
f 37/12/1 33/12/1 35/12/1
f 37/12/1 35/12/1 36/12/1
f 40/1/1 39/1/1 38/1/1
f 41/1/1 39/1/1 40/1/1
f 44/8/1 43/8/1 42/8/1
f 45/8/1 43/8/1 44/8/1
f 48/13/1 47/13/1 46/13/1
f 50/13/1 48/13/1 46/13/1
f 50/13/1 49/13/1 48/13/1
f 51/13/1 49/13/1 50/13/1
f 55/2/1 53/2/1 52/2/1
f 55/3/1 54/3/1 53/3/1
f 56/3/1 54/3/1 55/3/1
f 57/3/1 54/3/1 56/3/1
f 58/2/1 55/2/1 52/2/1
f 59/1/1 57/1/1 56/1/1
f 60/1/1 57/1/1 59/1/1
f 60/2/1 59/2/1 58/2/1
f 61/1/1 57/1/1 60/1/1
f 62/2/1 58/2/1 52/2/1
f 62/2/1 60/2/1 58/2/1
f 62/2/1 61/2/1 60/2/1
f 63/2/1 61/2/1 62/2/1
f 66/1/1 65/1/1 64/1/1
f 67/1/1 65/1/1 66/1/1
f 72/3/1 69/3/1 68/3/1
f 73/3/1 71/3/1 70/3/1
f 74/3/1 72/3/1 68/3/1
f 74/3/1 73/3/1 72/3/1
f 75/3/1 73/3/1 74/3/1
f 76/3/1 73/3/1 75/3/1
f 77/3/1 71/3/1 73/3/1
f 77/3/1 73/3/1 76/3/1
f 80/12/1 79/12/1 78/12/1
f 81/12/1 79/12/1 80/12/1
f 84/12/1 83/12/1 82/12/1
f 85/12/1 83/12/1 84/12/1
f 88/9/1 87/9/1 86/9/1
f 89/9/1 87/9/1 88/9/1
f 92/13/1 91/13/1 90/13/1
f 93/13/1 91/13/1 92/13/1
f 96/8/1 95/8/1 94/8/1
f 97/8/1 95/8/1 96/8/1
f 100/12/1 99/12/1 98/12/1
f 101/12/1 99/12/1 100/12/1
f 104/8/1 103/8/1 102/8/1
f 105/8/1 103/8/1 104/8/1
f 106/8/1 103/8/1 105/8/1
f 109/13/1 108/13/1 107/13/1
f 110/13/1 108/13/1 109/13/1
f 111/13/1 108/13/1 110/13/1
f 112/8/1 110/8/1 109/8/1
f 113/8/1 110/8/1 112/8/1
f 114/12/2 115/12/2 116/12/2
f 116/12/2 115/12/2 117/12/2
f 118/13/2 119/13/2 120/13/2
f 120/13/2 119/13/2 121/13/2
f 121/13/2 119/13/2 122/13/2
f 120/8/2 121/8/2 123/8/2
f 123/8/2 121/8/2 124/8/2
f 125/12/2 126/12/2 127/12/2
f 127/12/2 126/12/2 128/12/2
f 129/13/2 130/13/2 131/13/2
f 131/13/2 130/13/2 132/13/2
f 133/12/2 134/12/2 135/12/2
f 135/12/2 134/12/2 136/12/2
f 137/9/2 138/9/2 139/9/2
f 139/9/2 138/9/2 140/9/2
f 141/12/2 142/12/2 143/12/2
f 143/12/2 142/12/2 144/12/2
f 145/1/2 146/1/2 147/1/2
f 147/1/2 146/1/2 148/1/2
f 149/3/2 150/3/2 153/3/2
f 151/3/2 152/3/2 154/3/2
f 149/3/2 153/3/2 155/3/2
f 153/3/2 154/3/2 155/3/2
f 155/3/2 154/3/2 156/3/2
f 156/3/2 154/3/2 157/3/2
f 154/3/2 152/3/2 158/3/2
f 157/3/2 154/3/2 158/3/2
f 159/8/2 160/8/2 161/8/2
f 161/8/2 160/8/2 162/8/2
f 163/13/2 164/13/2 165/13/2
f 163/13/2 165/13/2 167/13/2
f 165/13/2 166/13/2 167/13/2
f 167/13/2 166/13/2 168/13/2
f 169/2/2 170/2/2 172/2/2
f 170/3/2 171/3/2 172/3/2
f 172/3/2 171/3/2 173/3/2
f 173/3/2 171/3/2 174/3/2
f 169/2/2 172/2/2 175/2/2
f 173/1/2 174/1/2 176/1/2
f 176/1/2 174/1/2 177/1/2
f 175/2/2 176/2/2 177/2/2
f 177/1/2 174/1/2 178/1/2
f 169/2/2 175/2/2 179/2/2
f 175/2/2 177/2/2 179/2/2
f 177/2/2 178/2/2 179/2/2
f 179/2/2 178/2/2 180/2/2
f 181/8/2 182/8/2 183/8/2
f 181/8/2 183/8/2 185/8/2
f 184/8/2 185/8/2 186/8/2
f 185/8/2 183/8/2 187/8/2
f 186/8/2 185/8/2 187/8/2
f 186/12/2 187/12/2 189/12/2
f 187/12/2 188/12/2 189/12/2
f 186/12/2 189/12/2 190/12/2
f 190/12/2 189/12/2 191/12/2
f 186/12/2 190/12/2 192/12/2
f 192/12/2 190/12/2 193/12/2
f 186/12/2 192/12/2 196/12/2
f 194/12/2 195/12/2 197/12/2
f 186/12/2 196/12/2 198/12/2
f 196/12/2 197/12/2 198/12/2
f 197/12/2 195/12/2 199/12/2
f 198/12/2 197/12/2 199/12/2
f 200/1/2 201/1/2 202/1/2
f 202/1/2 201/1/2 203/1/2
f 204/8/2 205/8/2 206/8/2
f 206/8/2 205/8/2 207/8/2
f 208/12/2 209/12/2 211/12/2
f 211/12/2 209/12/2 212/12/2
f 212/12/2 209/12/2 213/12/2
f 210/12/2 211/12/2 215/12/2
f 211/12/2 212/12/2 215/12/2
f 215/12/2 212/12/2 216/12/2
f 216/12/2 212/12/2 217/12/2
f 214/11/2 215/11/2 218/11/2
f 215/12/2 216/12/2 218/12/2
f 218/12/2 216/12/2 219/12/2
f 214/11/2 218/11/2 220/11/2
f 220/11/2 218/11/2 221/11/2
f 222/13/2 223/13/2 224/13/2
f 224/13/2 223/13/2 225/13/2
f 225/13/2 223/13/2 226/13/2
f 224/8/2 225/8/2 227/8/2
f 227/8/2 225/8/2 228/8/2
f 231/3/3 230/3/3 229/3/3
f 232/3/3 230/3/3 231/3/3
f 237/3/3 236/3/3 235/3/3
f 238/3/3 236/3/3 237/3/3
f 239/13/3 234/13/3 233/13/3
f 240/13/3 234/13/3 239/13/3
f 245/8/3 242/8/3 241/8/3
f 246/12/3 243/12/3 242/12/3
f 247/12/3 243/12/3 246/12/3
f 248/12/3 243/12/3 247/12/3
f 249/12/3 243/12/3 248/12/3
f 252/12/3 246/12/3 242/12/3
f 253/6/3 247/6/3 246/6/3
f 253/12/3 246/12/3 252/12/3
f 254/12/3 248/12/3 247/12/3
f 254/6/3 247/6/3 253/6/3
f 255/12/3 248/12/3 254/12/3
f 256/12/3 248/12/3 255/12/3
f 257/12/3 248/12/3 256/12/3
f 258/2/3 251/2/3 250/2/3
f 259/2/3 251/2/3 258/2/3
f 260/12/3 252/12/3 242/12/3
f 260/5/3 253/5/3 252/5/3
f 261/12/3 254/12/3 253/12/3
f 261/5/3 253/5/3 260/5/3
f 262/5/3 255/5/3 254/5/3
f 262/12/3 254/12/3 261/12/3
f 263/12/3 256/12/3 255/12/3
f 263/5/3 255/5/3 262/5/3
f 264/6/3 257/6/3 256/6/3
f 264/12/3 256/12/3 263/12/3
f 265/6/3 257/6/3 264/6/3
f 266/12/3 260/12/3 242/12/3
f 266/12/3 261/12/3 260/12/3
f 267/5/3 262/5/3 261/5/3
f 267/12/3 261/12/3 266/12/3
f 268/12/3 263/12/3 262/12/3
f 268/5/3 262/5/3 267/5/3
f 269/6/3 264/6/3 263/6/3
f 269/12/3 263/12/3 268/12/3
f 270/12/3 265/12/3 264/12/3
f 270/6/3 264/6/3 269/6/3
f 271/12/3 265/12/3 270/12/3
f 272/6/3 267/6/3 266/6/3
f 272/12/3 266/12/3 242/12/3
f 273/12/3 268/12/3 267/12/3
f 273/6/3 267/6/3 272/6/3
f 274/5/3 269/5/3 268/5/3
f 274/12/3 268/12/3 273/12/3
f 275/12/3 270/12/3 269/12/3
f 275/5/3 269/5/3 274/5/3
f 276/5/3 271/5/3 270/5/3
f 276/12/3 270/12/3 275/12/3
f 277/5/3 271/5/3 276/5/3
f 278/2/3 258/2/3 250/2/3
f 280/8/3 245/8/3 244/8/3
f 281/8/3 242/8/3 245/8/3
f 281/8/3 245/8/3 280/8/3
f 282/6/3 276/6/3 275/6/3
f 282/12/3 274/12/3 273/12/3
f 282/12/3 273/12/3 272/12/3
f 282/12/3 275/12/3 274/12/3
f 283/12/3 277/12/3 276/12/3
f 283/6/3 276/6/3 282/6/3
f 284/12/3 277/12/3 283/12/3
f 286/2/3 279/2/3 278/2/3
f 286/2/3 278/2/3 250/2/3
f 287/2/3 279/2/3 286/2/3
f 288/8/3 242/8/3 281/8/3
f 289/12/3 285/12/3 284/12/3
f 289/8/3 242/8/3 288/8/3
f 289/12/3 282/12/3 272/12/3
f 289/12/3 283/12/3 282/12/3
f 289/12/3 272/12/3 242/12/3
f 289/12/3 284/12/3 283/12/3
f 290/12/3 285/12/3 289/12/3
f 296/11/3 292/11/3 291/11/3
f 297/11/3 292/11/3 296/11/3
f 300/13/3 294/13/3 293/13/3
f 301/8/3 295/8/3 294/8/3
f 301/13/3 294/13/3 300/13/3
f 302/8/3 295/8/3 301/8/3
f 303/8/3 295/8/3 302/8/3
f 304/1/3 299/1/3 298/1/3
f 305/1/3 299/1/3 304/1/3
f 308/1/3 307/1/3 306/1/3
f 309/1/3 307/1/3 308/1/3
f 315/8/3 312/8/3 311/8/3
f 315/8/3 311/8/3 310/8/3
f 316/8/3 312/8/3 315/8/3
f 319/1/3 314/1/3 313/1/3
f 320/1/3 314/1/3 319/1/3
f 321/11/3 318/11/3 317/11/3
f 322/11/3 318/11/3 321/11/3
f 325/12/3 324/12/3 323/12/3
f 326/12/3 324/12/3 325/12/3
f 334/8/3 328/8/3 327/8/3
f 334/8/3 329/8/3 328/8/3
f 335/8/3 329/8/3 334/8/3
f 336/8/3 329/8/3 335/8/3
f 337/12/3 331/12/3 330/12/3
f 338/12/3 331/12/3 337/12/3
f 339/13/3 333/13/3 332/13/3
f 340/8/3 334/8/3 333/8/3
f 340/13/3 333/13/3 339/13/3
f 340/8/3 335/8/3 334/8/3
f 341/8/3 335/8/3 340/8/3
f 344/12/3 343/12/3 342/12/3
f 345/12/3 343/12/3 344/12/3
f 348/12/3 347/12/3 346/12/3
f 349/12/3 347/12/3 348/12/3
f 352/1/3 351/1/3 350/1/3
f 353/1/3 351/1/3 352/1/3
f 354/12/3 353/12/3 352/12/3
f 355/12/3 353/12/3 354/12/3
f 356/11/4 357/11/4 360/11/4
f 360/11/4 357/11/4 361/11/4
f 358/8/4 359/8/4 364/8/4
f 364/8/4 359/8/4 365/8/4
f 365/8/4 359/8/4 366/8/4
f 362/1/4 363/1/4 368/1/4
f 368/1/4 363/1/4 369/1/4
f 366/8/4 367/8/4 370/8/4
f 365/8/4 366/8/4 370/8/4
f 371/1/4 372/1/4 375/1/4
f 372/1/4 373/1/4 375/1/4
f 374/1/4 375/1/4 376/1/4
f 375/1/4 373/1/4 377/1/4
f 376/1/4 375/1/4 377/1/4
f 365/8/4 370/8/4 378/8/4
f 377/1/4 373/1/4 379/1/4
f 379/1/4 373/1/4 380/1/4
f 380/1/4 373/1/4 381/1/4
f 365/8/4 378/8/4 383/8/4
f 383/8/4 378/8/4 384/8/4
f 384/8/4 378/8/4 385/8/4
f 382/8/4 383/8/4 388/8/4
f 383/8/4 384/8/4 388/8/4
f 388/8/4 384/8/4 389/8/4
f 389/8/4 384/8/4 390/8/4
f 386/1/4 387/1/4 393/1/4
f 393/1/4 387/1/4 394/1/4
f 391/11/4 392/11/4 395/11/4
f 395/11/4 392/11/4 396/11/4
f 397/12/4 398/12/4 404/12/4
f 404/12/4 398/12/4 405/12/4
f 399/13/4 400/13/4 407/13/4
f 407/13/4 400/13/4 408/13/4
f 401/12/4 402/12/4 409/12/4
f 409/12/4 402/12/4 410/12/4
f 405/12/4 406/12/4 411/12/4
f 403/12/4 404/12/4 411/12/4
f 404/12/4 405/12/4 411/12/4
f 411/12/4 406/12/4 412/12/4
f 410/12/4 402/12/4 418/12/4
f 418/12/4 402/12/4 419/12/4
f 419/12/4 402/12/4 420/12/4
f 420/12/4 402/12/4 421/12/4
f 403/12/4 411/12/4 422/12/4
f 422/12/4 411/12/4 423/12/4
f 411/13/4 412/13/4 424/13/4
f 423/12/4 411/12/4 424/12/4
f 412/13/4 413/13/4 424/13/4
f 424/13/4 413/13/4 425/13/4
f 425/13/4 413/13/4 426/13/4
f 414/3/4 415/3/4 427/3/4
f 415/1/4 416/1/4 428/1/4
f 427/3/4 415/3/4 428/3/4
f 428/1/4 416/1/4 429/1/4
f 429/1/4 416/1/4 430/1/4
f 416/2/4 417/2/4 431/2/4
f 430/1/4 416/1/4 431/1/4
f 431/2/4 417/2/4 432/2/4
f 418/9/4 419/9/4 433/9/4
f 419/4/4 420/4/4 433/4/4
f 420/9/4 421/9/4 434/9/4
f 433/4/4 420/4/4 434/4/4
f 434/9/4 421/9/4 435/9/4
f 422/4/4 423/4/4 436/4/4
f 423/9/4 424/9/4 437/9/4
f 424/9/4 425/9/4 437/9/4
f 436/4/4 423/4/4 437/4/4
f 437/9/4 425/9/4 438/9/4
f 438/9/4 425/9/4 439/9/4
f 439/9/4 425/9/4 440/9/4
f 429/10/4 430/10/4 441/10/4
f 428/1/4 429/1/4 441/1/4
f 427/1/4 428/1/4 441/1/4
f 430/1/4 431/1/4 442/1/4
f 441/10/4 430/10/4 442/10/4
f 434/4/4 435/4/4 443/4/4
f 433/9/4 434/9/4 443/9/4
f 435/9/4 436/9/4 444/9/4
f 443/4/4 435/4/4 444/4/4
f 444/9/4 436/9/4 445/9/4
f 437/4/4 438/4/4 446/4/4
f 438/9/4 439/9/4 447/9/4
f 446/4/4 438/4/4 447/4/4
f 447/9/4 439/9/4 448/9/4
f 441/1/4 442/1/4 450/1/4
f 427/1/4 441/1/4 450/1/4
f 442/1/4 431/1/4 451/1/4
f 450/1/4 442/1/4 451/1/4
f 418/9/4 433/9/4 452/9/4
f 433/9/4 443/9/4 452/9/4
f 443/9/4 444/9/4 452/9/4
f 452/9/4 444/9/4 453/9/4
f 446/9/4 447/9/4 454/9/4
f 447/4/4 448/4/4 455/4/4
f 454/9/4 447/9/4 455/9/4
f 448/9/4 449/9/4 456/9/4
f 455/4/4 448/4/4 456/4/4
f 456/9/4 449/9/4 457/9/4
f 427/1/4 450/1/4 459/1/4
f 414/3/4 427/3/4 459/3/4
f 459/1/4 450/1/4 460/1/4
f 450/10/4 451/10/4 461/10/4
f 460/1/4 450/1/4 461/1/4
f 451/1/4 431/1/4 462/1/4
f 461/10/4 451/10/4 462/10/4
f 462/1/4 431/1/4 463/1/4
f 452/12/4 453/12/4 466/12/4
f 454/12/4 455/12/4 467/12/4
f 455/12/4 456/12/4 467/12/4
f 457/13/4 458/13/4 468/13/4
f 467/12/4 456/12/4 468/12/4
f 456/13/4 457/13/4 468/13/4
f 468/13/4 458/13/4 469/13/4
f 469/13/4 458/13/4 470/13/4
f 459/3/4 460/3/4 471/3/4
f 414/3/4 459/3/4 471/3/4
f 460/1/4 461/1/4 472/1/4
f 471/3/4 460/3/4 472/3/4
f 461/1/4 462/1/4 472/1/4
f 462/1/4 463/1/4 472/1/4
f 463/2/4 464/2/4 473/2/4
f 472/1/4 463/1/4 473/1/4
f 473/2/4 464/2/4 474/2/4
f 465/12/4 466/12/4 477/12/4
f 466/12/4 453/12/4 478/12/4
f 477/12/4 466/12/4 478/12/4
f 467/12/4 468/12/4 479/12/4
f 468/12/4 469/12/4 479/12/4
f 479/12/4 469/12/4 480/12/4
f 480/12/4 469/12/4 481/12/4
f 475/8/4 476/8/4 483/8/4
f 483/8/4 476/8/4 484/8/4
f 484/8/4 476/8/4 485/8/4
f 479/12/4 480/12/4 486/12/4
f 486/12/4 480/12/4 487/12/4
f 482/8/4 483/8/4 488/8/4
f 483/8/4 484/8/4 488/8/4
f 488/8/4 484/8/4 489/8/4
f 490/12/4 491/12/4 492/12/4
f 492/12/4 491/12/4 493/12/4
f 490/12/4 492/12/4 494/12/4
f 490/12/4 494/12/4 497/12/4
f 497/12/4 494/12/4 498/12/4
f 495/3/4 496/3/4 501/3/4
f 501/3/4 496/3/4 502/3/4
f 499/12/4 500/12/4 503/12/4
f 503/12/4 500/12/4 504/12/4
f 503/1/4 504/1/4 505/1/4
f 505/1/4 504/1/4 506/1/4
f 505/12/4 506/12/4 509/12/4
f 509/12/4 506/12/4 510/12/4
f 507/13/4 508/13/4 511/13/4
f 511/13/4 508/13/4 512/13/4
f 513/1/4 514/1/4 515/1/4
f 515/1/4 514/1/4 516/1/4
f 515/12/4 516/12/4 518/12/4
f 518/12/4 516/12/4 519/12/4
f 517/12/4 518/12/4 519/12/4
f 519/12/4 516/12/4 520/12/4
f 517/12/4 519/12/4 521/12/4
f 521/12/4 519/12/4 522/12/4
f 527/13/5 524/13/5 523/13/5
f 528/13/5 524/13/5 527/13/5
f 529/13/5 526/13/5 525/13/5
f 530/13/5 526/13/5 529/13/5
f 533/8/5 532/8/5 531/8/5
f 534/8/5 532/8/5 533/8/5
f 537/8/5 536/8/5 535/8/5
f 538/8/5 536/8/5 537/8/5
f 541/8/5 540/8/5 539/8/5
f 542/8/5 540/8/5 541/8/5
f 543/8/5 542/8/5 541/8/5
f 544/8/5 542/8/5 543/8/5
f 549/8/5 546/8/5 545/8/5
f 550/8/5 546/8/5 549/8/5
f 551/8/5 548/8/5 547/8/5
f 552/8/5 548/8/5 551/8/5
f 557/12/5 554/12/5 553/12/5
f 558/12/5 554/12/5 557/12/5
f 559/12/5 556/12/5 555/12/5
f 560/12/5 556/12/5 559/12/5
f 565/12/5 562/12/5 561/12/5
f 566/9/5 563/9/5 562/9/5
f 566/12/5 562/12/5 565/12/5
f 567/12/5 564/12/5 563/12/5
f 567/9/5 563/9/5 566/9/5
f 568/12/5 564/12/5 567/12/5
f 577/12/5 570/12/5 569/12/5
f 577/12/5 571/12/5 570/12/5
f 577/12/5 572/12/5 571/12/5
f 578/12/5 572/12/5 577/12/5
f 579/12/5 576/12/5 575/12/5
f 579/12/5 575/12/5 574/12/5
f 579/12/5 574/12/5 573/12/5
f 580/12/5 576/12/5 579/12/5
f 585/12/5 582/12/5 581/12/5
f 586/12/5 582/12/5 585/12/5
f 589/12/5 584/12/5 583/12/5
f 590/12/5 584/12/5 589/12/5
f 593/12/5 588/12/5 587/12/5
f 594/1/5 592/1/5 591/1/5
f 595/12/5 593/12/5 592/12/5
f 595/1/5 592/1/5 594/1/5
f 596/12/5 588/12/5 593/12/5
f 596/12/5 593/12/5 595/12/5
f 601/11/5 598/11/5 597/11/5
f 602/11/5 598/11/5 601/11/5
f 603/11/5 600/11/5 599/11/5
f 604/11/5 600/11/5 603/11/5
f 607/13/5 606/13/5 605/13/5
f 608/13/5 606/13/5 607/13/5
f 609/13/5 606/13/5 608/13/5
f 610/13/5 606/13/5 609/13/5
f 611/13/5 606/13/5 610/13/5
f 612/13/5 606/13/5 611/13/5
f 615/2/5 614/2/5 613/2/5
f 616/2/5 614/2/5 615/2/5
f 617/2/5 614/2/5 616/2/5
f 618/2/5 614/2/5 617/2/5
f 619/3/5 616/3/5 615/3/5
f 620/3/5 618/3/5 617/3/5
f 621/3/5 619/3/5 615/3/5
f 621/3/5 620/3/5 619/3/5
f 622/3/5 618/3/5 620/3/5
f 622/3/5 620/3/5 621/3/5
f 627/1/5 624/1/5 623/1/5
f 628/1/5 624/1/5 627/1/5
f 629/1/5 626/1/5 625/1/5
f 630/1/5 626/1/5 629/1/5
f 633/3/5 632/3/5 631/3/5
f 634/3/5 632/3/5 633/3/5
f 637/3/5 636/3/5 635/3/5
f 638/3/5 636/3/5 637/3/5
f 639/13/6 640/13/6 641/13/6
f 641/13/6 640/13/6 642/13/6
f 643/13/6 644/13/6 645/13/6
f 645/13/6 644/13/6 646/13/6
f 647/8/6 648/8/6 649/8/6
f 649/8/6 648/8/6 650/8/6
f 651/8/6 652/8/6 653/8/6
f 653/8/6 652/8/6 654/8/6
f 655/12/6 656/12/6 658/12/6
f 656/12/6 657/12/6 658/12/6
f 658/12/6 657/12/6 659/12/6
f 659/12/6 657/12/6 660/12/6
f 663/12/6 664/12/6 665/12/6
f 662/12/6 663/12/6 665/12/6
f 661/12/6 662/12/6 665/12/6
f 665/12/6 664/12/6 666/12/6
f 667/12/6 668/12/6 675/12/6
f 675/12/6 668/12/6 676/12/6
f 669/12/6 670/12/6 678/12/6
f 670/12/6 671/12/6 678/12/6
f 671/12/6 672/12/6 678/12/6
f 678/12/6 672/12/6 679/12/6
f 672/1/6 673/1/6 680/1/6
f 679/12/6 672/12/6 680/12/6
f 673/12/6 674/12/6 681/12/6
f 680/1/6 673/1/6 681/1/6
f 681/12/6 674/12/6 682/12/6
f 676/1/6 677/1/6 683/1/6
f 677/12/6 678/12/6 684/12/6
f 683/1/6 677/1/6 684/1/6
f 678/12/6 679/12/6 684/12/6
f 684/12/6 679/12/6 685/12/6
f 686/12/6 687/12/6 690/12/6
f 690/12/6 687/12/6 691/12/6
f 688/12/6 689/12/6 692/12/6
f 692/12/6 689/12/6 693/12/6
f 694/11/6 695/11/6 698/11/6
f 698/11/6 695/11/6 699/11/6
f 696/11/6 697/11/6 702/11/6
f 702/11/6 697/11/6 703/11/6
f 700/9/6 701/9/6 704/9/6
f 704/9/6 701/9/6 705/9/6
f 706/12/6 707/12/6 714/12/6
f 714/12/6 707/12/6 715/12/6
f 710/9/6 711/9/6 716/9/6
f 716/9/6 711/9/6 717/9/6
f 712/9/6 713/9/6 718/9/6
f 718/9/6 713/9/6 719/9/6
f 708/12/6 709/12/6 720/12/6
f 720/12/6 709/12/6 721/12/6
f 722/13/6 723/13/6 724/13/6
f 724/13/6 723/13/6 725/13/6
f 722/13/6 724/13/6 726/13/6
f 725/13/6 723/13/6 727/13/6
f 722/13/6 726/13/6 728/13/6
f 728/13/6 726/13/6 729/13/6
f 727/13/6 723/13/6 730/13/6
f 730/13/6 723/13/6 731/13/6
f 732/1/6 733/1/6 736/1/6
f 736/1/6 733/1/6 737/1/6
f 734/1/6 735/1/6 738/1/6
f 738/1/6 735/1/6 739/1/6
f 740/2/6 741/2/6 744/2/6
f 744/2/6 741/2/6 745/2/6
f 742/2/6 743/2/6 746/2/6
f 746/2/6 743/2/6 747/2/6
f 748/3/6 749/3/6 750/3/6
f 750/3/6 749/3/6 751/3/6
f 752/3/6 753/3/6 754/3/6
f 754/3/6 753/3/6 755/3/6
