# MagicaVoxel @ Ephtracy

# material
mtllib casa3.mtl
usemtl palette

# normals
vn -1 0 0
vn 1 0 0
vn 0 0 1
vn 0 0 -1
vn 0 -1 0
vn 0 1 0

# texcoords
vt 0.0253906 0.5
vt 0.0449219 0.5
vt 0.0488281 0.5

# verts
v -62.5 0 -0.5
v -62.5 0 -36.5
v -62.5 6 -34.5
v -62.5 6 -35.5
v -62.5 6 -36.5
v -62.5 9 -33.5
v -62.5 9 -34.5
v -62.5 9 -35.5
v -62.5 36 -33.5
v -62.5 36 -34.5
v -62.5 36 -35.5
v -62.5 39 -34.5
v -62.5 39 -35.5
v -62.5 39 -36.5
v -62.5 61 -0.5
v -62.5 61 -32.5
v -62.5 62 -0.5
v -62.5 62 -32.5
v -62.5 72 -32.5
v -62.5 72 -36.5
v -48.5 0 -36.5
v -48.5 0 -62.5
v -48.5 6 -36.5
v -48.5 6 -62.5
v -48.5 39 -36.5
v -48.5 39 -62.5
v -48.5 72 -36.5
v -48.5 72 -62.5
v -47.5 6 -35.5
v -47.5 6 -62.5
v -47.5 9 -35.5
v -47.5 9 -62.5
v -47.5 36 -35.5
v -47.5 36 -62.5
v -47.5 39 -35.5
v -47.5 39 -62.5
v -45.5 9 -33.5
v -45.5 9 -62.5
v -45.5 36 -33.5
v -45.5 36 -62.5
v -44.5 62 -32.5
v -44.5 62 -62.5
v -44.5 72 -32.5
v -44.5 72 -62.5
v -12.5 0 -0.5
v -12.5 0 -62.5
v -12.5 61 -0.5
v -12.5 61 -62.5
v -12.5 62 -0.5
v -12.5 62 -62.5
v -62.5 0 -0.5
v -62.5 61 -0.5
v -62.5 62 -0.5
v -12.5 0 -0.5
v -12.5 61 -0.5
v -12.5 62 -0.5
v -62.5 62 -32.5
v -62.5 72 -32.5
v -44.5 62 -32.5
v -44.5 72 -32.5
v -62.5 9 -33.5
v -62.5 36 -33.5
v -45.5 9 -33.5
v -45.5 36 -33.5
v -62.5 6 -35.5
v -62.5 9 -35.5
v -62.5 36 -35.5
v -62.5 39 -35.5
v -47.5 6 -35.5
v -47.5 9 -35.5
v -47.5 36 -35.5
v -47.5 39 -35.5
v -62.5 0 -36.5
v -62.5 6 -36.5
v -62.5 39 -36.5
v -62.5 72 -36.5
v -48.5 0 -36.5
v -48.5 6 -36.5
v -48.5 39 -36.5
v -48.5 72 -36.5
v -48.5 0 -62.5
v -48.5 6 -62.5
v -48.5 39 -62.5
v -48.5 72 -62.5
v -47.5 6 -62.5
v -47.5 9 -62.5
v -47.5 36 -62.5
v -47.5 39 -62.5
v -46.5 6 -62.5
v -46.5 9 -62.5
v -46.5 36 -62.5
v -46.5 39 -62.5
v -45.5 9 -62.5
v -45.5 36 -62.5
v -44.5 61 -62.5
v -44.5 62 -62.5
v -44.5 72 -62.5
v -12.5 0 -62.5
v -12.5 61 -62.5
v -12.5 62 -62.5
v -62.5 0 -0.5
v -12.5 0 -0.5
v -61.5 0 -1.5
v -26.5 0 -1.5
v -61.5 0 -35.5
v -26.5 0 -35.5
v -62.5 0 -36.5
v -48.5 0 -36.5
v -48.5 0 -62.5
v -12.5 0 -62.5
v -62.5 36 -33.5
v -45.5 36 -33.5
v -62.5 36 -34.5
v -46.5 36 -34.5
v -62.5 36 -35.5
v -47.5 36 -35.5
v -47.5 36 -62.5
v -46.5 36 -62.5
v -45.5 36 -62.5
v -62.5 39 -35.5
v -47.5 39 -35.5
v -62.5 39 -36.5
v -48.5 39 -36.5
v -48.5 39 -62.5
v -47.5 39 -62.5
v -62.5 6 -35.5
v -47.5 6 -35.5
v -62.5 6 -36.5
v -48.5 6 -36.5
v -48.5 6 -62.5
v -47.5 6 -62.5
v -62.5 9 -33.5
v -45.5 9 -33.5
v -62.5 9 -34.5
v -46.5 9 -34.5
v -62.5 9 -35.5
v -47.5 9 -35.5
v -47.5 9 -62.5
v -46.5 9 -62.5
v -45.5 9 -62.5
v -62.5 62 -0.5
v -12.5 62 -0.5
v -62.5 62 -32.5
v -44.5 62 -32.5
v -44.5 62 -62.5
v -12.5 62 -62.5
v -62.5 72 -32.5
v -44.5 72 -32.5
v -62.5 72 -36.5
v -48.5 72 -36.5
v -48.5 72 -62.5
v -44.5 72 -62.5

# faces
f 3/1/1 2/1/1 1/1/1
f 4/1/1 2/1/1 3/1/1
f 5/1/1 2/1/1 4/1/1
f 6/1/1 3/1/1 1/1/1
f 7/2/1 4/2/1 3/2/1
f 7/1/1 3/1/1 6/1/1
f 8/2/1 4/2/1 7/2/1
f 9/1/1 6/1/1 1/1/1
f 12/1/1 10/1/1 9/1/1
f 12/2/1 11/2/1 10/2/1
f 13/2/1 11/2/1 12/2/1
f 15/1/1 13/1/1 12/1/1
f 15/1/1 14/1/1 13/1/1
f 15/1/1 12/1/1 9/1/1
f 15/1/1 9/1/1 1/1/1
f 16/1/1 14/1/1 15/1/1
f 17/3/1 16/3/1 15/3/1
f 18/1/1 14/1/1 16/1/1
f 18/3/1 16/3/1 17/3/1
f 19/1/1 14/1/1 18/1/1
f 20/1/1 14/1/1 19/1/1
f 23/1/1 22/1/1 21/1/1
f 24/1/1 22/1/1 23/1/1
f 27/1/1 26/1/1 25/1/1
f 28/1/1 26/1/1 27/1/1
f 31/2/1 30/2/1 29/2/1
f 32/2/1 30/2/1 31/2/1
f 35/2/1 34/2/1 33/2/1
f 36/2/1 34/2/1 35/2/1
f 39/1/1 38/1/1 37/1/1
f 40/1/1 38/1/1 39/1/1
f 41/1/2 42/1/2 43/1/2
f 43/1/2 42/1/2 44/1/2
f 45/1/2 46/1/2 47/1/2
f 47/1/2 46/1/2 48/1/2
f 47/3/2 48/3/2 49/3/2
f 49/3/2 48/3/2 50/3/2
f 54/1/3 52/1/3 51/1/3
f 55/3/3 53/3/3 52/3/3
f 55/1/3 52/1/3 54/1/3
f 56/3/3 53/3/3 55/3/3
f 59/1/3 58/1/3 57/1/3
f 60/1/3 58/1/3 59/1/3
f 61/1/4 62/1/4 63/1/4
f 63/1/4 62/1/4 64/1/4
f 65/2/4 66/2/4 69/2/4
f 69/2/4 66/2/4 70/2/4
f 67/2/4 68/2/4 71/2/4
f 71/2/4 68/2/4 72/2/4
f 73/1/4 74/1/4 77/1/4
f 77/1/4 74/1/4 78/1/4
f 75/1/4 76/1/4 79/1/4
f 79/1/4 76/1/4 80/1/4
f 81/1/4 82/1/4 85/1/4
f 83/1/4 84/1/4 88/1/4
f 85/2/4 86/2/4 89/2/4
f 81/1/4 85/1/4 89/1/4
f 89/2/4 86/2/4 90/2/4
f 87/2/4 88/2/4 91/2/4
f 88/1/4 84/1/4 92/1/4
f 91/2/4 88/2/4 92/2/4
f 89/1/4 90/1/4 93/1/4
f 91/1/4 92/1/4 94/1/4
f 92/1/4 84/1/4 95/1/4
f 93/1/4 94/1/4 95/1/4
f 94/1/4 92/1/4 95/1/4
f 95/1/4 84/1/4 96/1/4
f 96/1/4 84/1/4 97/1/4
f 81/1/4 89/1/4 98/1/4
f 89/1/4 93/1/4 98/1/4
f 93/1/4 95/1/4 98/1/4
f 95/3/4 96/3/4 99/3/4
f 98/1/4 95/1/4 99/1/4
f 99/3/4 96/3/4 100/3/4
f 103/1/5 102/1/5 101/1/5
f 104/1/5 102/1/5 103/1/5
f 105/1/5 103/1/5 101/1/5
f 105/3/5 104/3/5 103/3/5
f 106/1/5 102/1/5 104/1/5
f 106/3/5 104/3/5 105/3/5
f 107/1/5 105/1/5 101/1/5
f 107/1/5 106/1/5 105/1/5
f 108/1/5 106/1/5 107/1/5
f 109/1/5 106/1/5 108/1/5
f 110/1/5 102/1/5 106/1/5
f 110/1/5 106/1/5 109/1/5
f 113/1/5 112/1/5 111/1/5
f 114/1/5 112/1/5 113/1/5
f 115/2/5 114/2/5 113/2/5
f 116/2/5 114/2/5 115/2/5
f 117/2/5 114/2/5 116/2/5
f 118/1/5 112/1/5 114/1/5
f 118/2/5 114/2/5 117/2/5
f 119/1/5 112/1/5 118/1/5
f 122/1/5 121/1/5 120/1/5
f 123/1/5 121/1/5 122/1/5
f 124/1/5 121/1/5 123/1/5
f 125/1/5 121/1/5 124/1/5
f 126/1/6 127/1/6 128/1/6
f 128/1/6 127/1/6 129/1/6
f 129/1/6 127/1/6 130/1/6
f 130/1/6 127/1/6 131/1/6
f 132/1/6 133/1/6 134/1/6
f 134/1/6 133/1/6 135/1/6
f 134/2/6 135/2/6 136/2/6
f 136/2/6 135/2/6 137/2/6
f 137/2/6 135/2/6 138/2/6
f 135/1/6 133/1/6 139/1/6
f 138/2/6 135/2/6 139/2/6
f 139/1/6 133/1/6 140/1/6
f 141/3/6 142/3/6 143/3/6
f 143/3/6 142/3/6 144/3/6
f 144/3/6 142/3/6 145/3/6
f 145/3/6 142/3/6 146/3/6
f 147/1/6 148/1/6 149/1/6
f 149/1/6 148/1/6 150/1/6
f 150/1/6 148/1/6 151/1/6
f 151/1/6 148/1/6 152/1/6
